<?xml version="1.0" encoding="UTF-8" standalone="no"?>
<!-- Created with Inkscape (http://www.inkscape.org/) -->

<svg
   xmlns:dc="http://purl.org/dc/elements/1.1/"
   xmlns:cc="http://creativecommons.org/ns#"
   xmlns:rdf="http://www.w3.org/1999/02/22-rdf-syntax-ns#"
   xmlns:svg="http://www.w3.org/2000/svg"
   xmlns="http://www.w3.org/2000/svg"
   xmlns:sodipodi="http://sodipodi.sourceforge.net/DTD/sodipodi-0.dtd"
   xmlns:inkscape="http://www.inkscape.org/namespaces/inkscape"
   inkscape:export-ydpi="90"
   inkscape:export-xdpi="90"
   inkscape:export-filename="/home/matt/Git/Tutorials/Bouncing_Ball_Matlab/bouncingBall.png"
   sodipodi:docname="bouncingBall.svg"
   inkscape:version="0.48.4 r9939"
   version="1.1"
   id="svg2"
   height="600"
   width="900">
  <sodipodi:namedview
     id="base"
     pagecolor="#ffffff"
     bordercolor="#666666"
     borderopacity="1.0"
     inkscape:pageopacity="0.0"
     inkscape:pageshadow="2"
     inkscape:zoom="1.0213765"
     inkscape:cx="437.61069"
     inkscape:cy="327.8802"
     inkscape:document-units="px"
     inkscape:current-layer="layer2"
     showgrid="false"
     inkscape:window-width="1855"
     inkscape:window-height="1056"
     inkscape:window-x="65"
     inkscape:window-y="24"
     inkscape:window-maximized="1" />
  <defs
     id="defs4">
    <marker
       style="overflow:visible"
       id="Arrow1Mend"
       refX="0"
       refY="0"
       orient="auto"
       inkscape:stockid="Arrow1Mend">
      <path
         transform="matrix(-0.4,0,0,-0.4,-4,0)"
         style="fill-rule:evenodd;stroke:#000000;stroke-width:1pt"
         d="M 0,0 5,-5 -12.5,0 5,5 0,0 z"
         id="path3879"
         inkscape:connector-curvature="0" />
    </marker>
    <marker
       style="overflow:visible"
       id="Arrow1MendE"
       refX="0"
       refY="0"
       orient="auto"
       inkscape:stockid="Arrow1MendE">
      <path
         transform="matrix(-0.4,0,0,-0.4,-4,0)"
         style="fill:#4d4d4d;fill-rule:evenodd;stroke:#4d4d4d;stroke-width:1pt"
         d="M 0,0 5,-5 -12.5,0 5,5 0,0 z"
         id="path4316"
         inkscape:connector-curvature="0" />
    </marker>
    <clipPath
       clipPathUnits="userSpaceOnUse"
       id="clipPath5166">
      <path
         d="m 0,0 560.00002,0 0,419.99999 L 0,419.99999 0,0 z"
         id="path5168"
         inkscape:connector-curvature="0" />
    </clipPath>
    <clipPath
       id="clipPath6020"
       clipPathUnits="userSpaceOnUse">
      <path
         id="path6022"
         d="m 0,0 649,0 0,479.99999 -649,0 L 0,0 z" />
    </clipPath>
  </defs>
  <metadata
     id="metadata7">
    <rdf:RDF>
      <cc:Work
         rdf:about="">
        <dc:format>image/svg+xml</dc:format>
        <dc:type
           rdf:resource="http://purl.org/dc/dcmitype/StillImage" />
        <dc:title></dc:title>
      </cc:Work>
    </rdf:RDF>
  </metadata>
  <g
     inkscape:groupmode="layer"
     id="layer2"
     inkscape:label="CropWindow"
     style="display:inline"
     sodipodi:insensitive="true">
    <rect
       transform="translate(0,-452.36218)"
       style="fill:none;stroke:#d3d3d3;stroke-width:2;stroke-linecap:round;stroke-miterlimit:1;stroke-opacity:1;stroke-dasharray:none;stroke-dashoffset:0"
       id="rect7719"
       width="897.8324"
       height="597.8324"
       x="1.0838038"
       y="453.44598" />
  </g>
  <g
     transform="translate(0,-452.36218)"
     id="layer1"
     inkscape:groupmode="layer"
     inkscape:label="Layer 1">
    <g
       id="g7436"
       transform="matrix(1.3288903,0,0,1.3288903,-125.99262,-247.05975)">
      <g
         id="g7154">
        <g
           id="g6873">
          <g
             id="g6012"
             inkscape:label="bouncingBall"
             transform="matrix(1.2341189,0,0,-1.2341189,148.5465,971.45596)">
            <g
               id="g6014"
               transform="matrix(0.24,0,0,-0.24,0,364)">
              <g
                 id="g6030"
                 transform="scale(3.1578946,3.1578947)" />
              <g
                 id="g6034"
                 transform="scale(3.1578946,3.1578947)">
                <path
                   inkscape:connector-curvature="0"
                   d="m 87.626793,427 495.746437,0"
                   style="fill:none;stroke:#262626;stroke-width:0.65972197;stroke-linecap:square;stroke-linejoin:round;stroke-miterlimit:10;stroke-opacity:1;stroke-dasharray:none"
                   id="path6036" />
              </g>
              <g
                 id="g6038"
                 transform="scale(3.1578946,3.1578947)">
                <path
                   inkscape:connector-curvature="0"
                   d="m 87.626793,427 0,-4.94479"
                   style="fill:none;stroke:#262626;stroke-width:0.65972197;stroke-linecap:square;stroke-linejoin:round;stroke-miterlimit:10;stroke-opacity:1;stroke-dasharray:none"
                   id="path6040" />
              </g>
              <g
                 id="g6042"
                 transform="scale(3.1578946,3.1578947)">
                <path
                   inkscape:connector-curvature="0"
                   d="m 166.20464,427 0,-4.94479"
                   style="fill:none;stroke:#262626;stroke-width:0.65972197;stroke-linecap:square;stroke-linejoin:round;stroke-miterlimit:10;stroke-opacity:1;stroke-dasharray:none"
                   id="path6044" />
              </g>
              <g
                 id="g6046"
                 transform="scale(3.1578946,3.1578947)">
                <path
                   inkscape:connector-curvature="0"
                   d="m 244.78247,427 0,-4.94479"
                   style="fill:none;stroke:#262626;stroke-width:0.65972197;stroke-linecap:square;stroke-linejoin:round;stroke-miterlimit:10;stroke-opacity:1;stroke-dasharray:none"
                   id="path6048" />
              </g>
              <g
                 id="g6050"
                 transform="scale(3.1578946,3.1578947)">
                <path
                   inkscape:connector-curvature="0"
                   d="m 323.36032,427 0,-4.94479"
                   style="fill:none;stroke:#262626;stroke-width:0.65972197;stroke-linecap:square;stroke-linejoin:round;stroke-miterlimit:10;stroke-opacity:1;stroke-dasharray:none"
                   id="path6052" />
              </g>
              <g
                 id="g6054"
                 transform="scale(3.1578946,3.1578947)">
                <path
                   inkscape:connector-curvature="0"
                   d="m 401.93814,427 0,-4.94479"
                   style="fill:none;stroke:#262626;stroke-width:0.65972197;stroke-linecap:square;stroke-linejoin:round;stroke-miterlimit:10;stroke-opacity:1;stroke-dasharray:none"
                   id="path6056" />
              </g>
              <g
                 id="g6058"
                 transform="scale(3.1578946,3.1578947)">
                <path
                   inkscape:connector-curvature="0"
                   d="m 480.51599,427 0,-4.94479"
                   style="fill:none;stroke:#262626;stroke-width:0.65972197;stroke-linecap:square;stroke-linejoin:round;stroke-miterlimit:10;stroke-opacity:1;stroke-dasharray:none"
                   id="path6060" />
              </g>
              <g
                 id="g6062"
                 transform="scale(3.1578946,3.1578947)">
                <path
                   inkscape:connector-curvature="0"
                   d="m 559.09381,427 0,-4.94479"
                   style="fill:none;stroke:#262626;stroke-width:0.65972197;stroke-linecap:square;stroke-linejoin:round;stroke-miterlimit:10;stroke-opacity:1;stroke-dasharray:none"
                   id="path6064" />
              </g>
              <g
                 id="g6066">
                <g
                   id="g6068"
                   transform="matrix(3.1578946,0,0,3.1578947,276.71618,1368.4211)">
                  <text
                     transform="translate(-6,17)"
                     id="text6070">
                    <tspan
                       style="font-size:18px;font-variant:normal;font-weight:normal;writing-mode:lr-tb;fill:#262626;fill-opacity:1;fill-rule:nonzero;stroke:none;font-family:Helvetica;-inkscape-font-specification:Helvetica"
                       x="0"
                       y="0"
                       id="tspan6072">0</tspan>
                  </text>
                </g>
              </g>
              <g
                 id="g6074">
                <g
                   id="g6076"
                   transform="matrix(3.1578946,0,0,3.1578947,524.85673,1368.4211)">
                  <text
                     transform="translate(-14.5,17)"
                     id="text6078">
                    <tspan
                       style="font-size:18px;font-variant:normal;font-weight:normal;writing-mode:lr-tb;fill:#262626;fill-opacity:1;fill-rule:nonzero;stroke:none;font-family:Helvetica;-inkscape-font-specification:Helvetica"
                       x="0 10.008 15.012"
                       y="0"
                       sodipodi:role="line"
                       id="tspan6080">0.5</tspan>
                  </text>
                </g>
              </g>
              <g
                 id="g6082">
                <g
                   id="g6084"
                   transform="matrix(3.1578946,0,0,3.1578947,772.99725,1368.4211)">
                  <text
                     transform="translate(-6,17)"
                     id="text6086">
                    <tspan
                       style="font-size:18px;font-variant:normal;font-weight:normal;writing-mode:lr-tb;fill:#262626;fill-opacity:1;fill-rule:nonzero;stroke:none;font-family:Helvetica;-inkscape-font-specification:Helvetica"
                       x="0"
                       y="0"
                       id="tspan6088">1</tspan>
                  </text>
                </g>
              </g>
              <g
                 id="g6090">
                <g
                   id="g6092"
                   transform="matrix(3.1578946,0,0,3.1578947,1021.1378,1368.4211)">
                  <text
                     transform="translate(-14.5,17)"
                     id="text6094">
                    <tspan
                       style="font-size:18px;font-variant:normal;font-weight:normal;writing-mode:lr-tb;fill:#262626;fill-opacity:1;fill-rule:nonzero;stroke:none;font-family:Helvetica;-inkscape-font-specification:Helvetica"
                       x="0 10.008 15.012"
                       y="0"
                       sodipodi:role="line"
                       id="tspan6096">1.5</tspan>
                  </text>
                </g>
              </g>
              <g
                 id="g6098">
                <g
                   id="g6100"
                   transform="matrix(3.1578946,0,0,3.1578947,1269.2783,1368.4211)">
                  <text
                     transform="translate(-6,17)"
                     id="text6102">
                    <tspan
                       style="font-size:18px;font-variant:normal;font-weight:normal;writing-mode:lr-tb;fill:#262626;fill-opacity:1;fill-rule:nonzero;stroke:none;font-family:Helvetica;-inkscape-font-specification:Helvetica"
                       x="0"
                       y="0"
                       id="tspan6104">2</tspan>
                  </text>
                </g>
              </g>
              <g
                 id="g6106">
                <g
                   id="g6108"
                   transform="matrix(3.1578946,0,0,3.1578947,1517.4189,1368.4211)">
                  <text
                     transform="translate(-14.5,17)"
                     id="text6110">
                    <tspan
                       style="font-size:18px;font-variant:normal;font-weight:normal;writing-mode:lr-tb;fill:#262626;fill-opacity:1;fill-rule:nonzero;stroke:none;font-family:Helvetica;-inkscape-font-specification:Helvetica"
                       x="0 10.008 15.012"
                       y="0"
                       sodipodi:role="line"
                       id="tspan6112">2.5</tspan>
                  </text>
                </g>
              </g>
              <g
                 id="g6114">
                <g
                   id="g6116"
                   transform="matrix(3.1578946,0,0,3.1578947,1765.5593,1368.4211)">
                  <text
                     transform="translate(-6,17)"
                     id="text6118">
                    <tspan
                       style="font-size:18px;font-variant:normal;font-weight:normal;writing-mode:lr-tb;fill:#262626;fill-opacity:1;fill-rule:nonzero;stroke:none;font-family:Helvetica;-inkscape-font-specification:Helvetica"
                       x="0"
                       y="0"
                       id="tspan6120">3</tspan>
                  </text>
                </g>
              </g>
              <g
                 id="g6122">
                <g
                   id="g6124"
                   transform="matrix(3.1578946,0,0,3.1578947,1059.4744,1438.9035)">
                  <text
                     transform="translate(-114.5,19)"
                     id="text6126">
                    <tspan
                       style="font-size:20px;font-variant:normal;font-weight:normal;writing-mode:lr-tb;fill:#262626;fill-opacity:1;fill-rule:nonzero;stroke:none;font-family:Helvetica;-inkscape-font-specification:Helvetica"
                       x="0 14.44 25.559999 32.220001 36.66 46.66 57.779999 68.900002 74.459999 85.580002 90.019997 95.580002 108.92 120.04 130.03999 134.48 140.03999 144.48 155.60001 166.72 172.28 178.94 195.60001"
                       y="0"
                       sodipodi:role="line"
                       id="tspan6128">Horizontal Position (m)</tspan>
                  </text>
                </g>
              </g>
              <g
                 id="g6130"
                 transform="scale(3.1578946,3.1578947)">
                <path
                   inkscape:connector-curvature="0"
                   d="m 87.626793,427 0,-390.999992"
                   style="fill:none;stroke:#262626;stroke-width:0.65972197;stroke-linecap:square;stroke-linejoin:round;stroke-miterlimit:10;stroke-opacity:1;stroke-dasharray:none"
                   id="path6132" />
              </g>
              <g
                 id="g6134"
                 transform="scale(3.1578946,3.1578947)">
                <path
                   inkscape:connector-curvature="0"
                   d="m 87.626793,388.65567 4.944778,0"
                   style="fill:none;stroke:#262626;stroke-width:0.65972197;stroke-linecap:square;stroke-linejoin:round;stroke-miterlimit:10;stroke-opacity:1;stroke-dasharray:none"
                   id="path6136" />
              </g>
              <g
                 id="g6138"
                 transform="scale(3.1578946,3.1578947)">
                <path
                   inkscape:connector-curvature="0"
                   d="m 87.626793,310.07785 4.944778,0"
                   style="fill:none;stroke:#262626;stroke-width:0.65972197;stroke-linecap:square;stroke-linejoin:round;stroke-miterlimit:10;stroke-opacity:1;stroke-dasharray:none"
                   id="path6140" />
              </g>
              <g
                 id="g6142"
                 transform="scale(3.1578946,3.1578947)">
                <path
                   inkscape:connector-curvature="0"
                   d="m 87.626793,231.5 4.944778,0"
                   style="fill:none;stroke:#262626;stroke-width:0.65972197;stroke-linecap:square;stroke-linejoin:round;stroke-miterlimit:10;stroke-opacity:1;stroke-dasharray:none"
                   id="path6144" />
              </g>
              <g
                 id="g6146"
                 transform="scale(3.1578946,3.1578947)">
                <path
                   inkscape:connector-curvature="0"
                   d="m 87.626793,152.92216 4.944778,0"
                   style="fill:none;stroke:#262626;stroke-width:0.65972197;stroke-linecap:square;stroke-linejoin:round;stroke-miterlimit:10;stroke-opacity:1;stroke-dasharray:none"
                   id="path6148" />
              </g>
              <g
                 id="g6150"
                 transform="scale(3.1578946,3.1578947)">
                <path
                   inkscape:connector-curvature="0"
                   d="m 87.626793,74.344322 4.944778,0"
                   style="fill:none;stroke:#262626;stroke-width:0.65972197;stroke-linecap:square;stroke-linejoin:round;stroke-miterlimit:10;stroke-opacity:1;stroke-dasharray:none"
                   id="path6152" />
              </g>
              <g
                 id="g6154">
                <g
                   id="g6156"
                   transform="matrix(3.1578946,0,0,3.1578947,256.71617,1227.3337)">
                  <text
                     transform="translate(-36,6)"
                     id="text6158">
                    <tspan
                       style="font-size:18px;font-variant:normal;font-weight:normal;writing-mode:lr-tb;fill:#262626;fill-opacity:1;fill-rule:nonzero;stroke:none;font-family:Helvetica;-inkscape-font-specification:Helvetica"
                       x="0 5.994 16.002001 21.006001"
                       y="0"
                       sodipodi:role="line"
                       id="tspan6160">-0.5</tspan>
                  </text>
                </g>
              </g>
              <g
                 id="g6162">
                <g
                   id="g6164"
                   transform="matrix(3.1578946,0,0,3.1578947,256.71617,979.19319)">
                  <text
                     transform="translate(-12,6)"
                     id="text6166">
                    <tspan
                       style="font-size:18px;font-variant:normal;font-weight:normal;writing-mode:lr-tb;fill:#262626;fill-opacity:1;fill-rule:nonzero;stroke:none;font-family:Helvetica;-inkscape-font-specification:Helvetica"
                       x="0"
                       y="0"
                       id="tspan6168">0</tspan>
                  </text>
                </g>
              </g>
              <g
                 id="g6170">
                <g
                   id="g6172"
                   transform="matrix(3.1578946,0,0,3.1578947,256.71617,731.05262)">
                  <text
                     transform="translate(-29,6)"
                     id="text6174">
                    <tspan
                       style="font-size:18px;font-variant:normal;font-weight:normal;writing-mode:lr-tb;fill:#262626;fill-opacity:1;fill-rule:nonzero;stroke:none;font-family:Helvetica;-inkscape-font-specification:Helvetica"
                       x="0 10.008 15.012"
                       y="0"
                       sodipodi:role="line"
                       id="tspan6176">0.5</tspan>
                  </text>
                </g>
              </g>
              <g
                 id="g6178">
                <g
                   id="g6180"
                   transform="matrix(3.1578946,0,0,3.1578947,256.71617,482.91209)">
                  <text
                     transform="translate(-12,6)"
                     id="text6182">
                    <tspan
                       style="font-size:18px;font-variant:normal;font-weight:normal;writing-mode:lr-tb;fill:#262626;fill-opacity:1;fill-rule:nonzero;stroke:none;font-family:Helvetica;-inkscape-font-specification:Helvetica"
                       x="0"
                       y="0"
                       id="tspan6184">1</tspan>
                  </text>
                </g>
              </g>
              <g
                 id="g6186">
                <g
                   id="g6188"
                   transform="matrix(3.1578946,0,0,3.1578947,256.71617,234.77154)">
                  <text
                     transform="translate(-29,6)"
                     id="text6190">
                    <tspan
                       style="font-size:18px;font-variant:normal;font-weight:normal;writing-mode:lr-tb;fill:#262626;fill-opacity:1;fill-rule:nonzero;stroke:none;font-family:Helvetica;-inkscape-font-specification:Helvetica"
                       x="0 10.008 15.012"
                       y="0"
                       sodipodi:role="line"
                       id="tspan6192">1.5</tspan>
                  </text>
                </g>
              </g>
              <g
                 id="g6194">
                <g
                   id="g6196"
                   transform="matrix(-1.4e-7,-3.1578947,3.1578946,-1.4e-7,132.53389,731.05204)">
                  <text
                     transform="translate(-101.5,-5)"
                     id="text6198">
                    <tspan
                       style="font-size:20px;font-variant:normal;font-weight:normal;writing-mode:lr-tb;fill:#262626;fill-opacity:1;fill-rule:nonzero;stroke:none;font-family:Helvetica;-inkscape-font-specification:Helvetica"
                       x="0 13.34 24.459999 31.120001 36.68 41.119999 51.119999 62.240002 66.68 72.239998 85.580002 96.699997 106.7 111.14 116.7 121.14 132.25999 143.38 148.94 155.60001 172.25999"
                       y="0"
                       sodipodi:role="line"
                       id="tspan6200">Vertical Position (m)</tspan>
                  </text>
                </g>
              </g>
              <g
                 id="g6202">
                <g
                   id="g6204"
                   transform="matrix(3.1578946,0,0,3.1578947,1059.4747,101.49517)">
                  <text
                     transform="translate(-125.5,-5)"
                     id="text6206">
                    <tspan
                       style="font-size:20px;font-variant:normal;font-weight:bold;writing-mode:lr-tb;fill:#000000;fill-opacity:1;fill-rule:nonzero;stroke:none;font-family:Helvetica;-inkscape-font-specification:Helvetica-Bold"
                       x="0 13.34 24.459999 31.120001 43.34 48.900002 55.560001 66.68 77.800003 88.919998 101.14 106.7 118.92 130.03999 135.60001 142.25999 154.48 165.60001 171.16 183.38 194.5 200.06"
                       y="0"
                       sodipodi:role="line"
                       id="tspan6208">Path taken by the ball</tspan>
                  </text>
                </g>
              </g>
              <g
                 id="g6210"
                 transform="scale(3.1578946,3.1578947)">
                <path
                   inkscape:connector-curvature="0"
                   d="m 255.17592,295.5 -0.95821,-4.19821 -2.68487,-3.36673 -3.87975,-1.86838 -4.30618,0 -3.87975,1.86838 -2.68487,3.36673 -0.95821,4.19821 0.95821,4.19821 2.68487,3.36673 3.87975,1.86838 4.30618,0 3.87975,-1.86838 2.68487,-3.36673 0.95821,-4.19821 z"
                   style="fill:#0000ff;fill-opacity:1;fill-rule:nonzero;stroke:none"
                   id="path6212" />
              </g>
              <g
                 id="g6214"
                 transform="scale(3.1578946,3.1578947)">
                <path
                   inkscape:connector-curvature="0"
                   d="m 87.626793,74.344322 0,0.814942 0,0.854164 0,0.893287 0,0.93245 0,0.97155 0,1.010612 0,1.049652 0,1.088654 0,1.127609 0,1.16655 0,1.205429 0,1.244308 0,1.283081 0,1.321862 0,1.360588 0,1.399269 0,1.437904 0,1.476479 0,1.515037 0,1.553513 0,1.591942 0,1.630336 0,1.66868 0,1.70695 0,1.74516 0,1.78334 0,1.82144 0,1.85949 0,1.8975 0,1.93541 0,1.97328 0,2.01108 0,2.04882 0,2.08651 0,2.12409 0,2.16165 0,2.1991 0,2.23652 0,2.27385 0,2.3111 0,2.34828 0,2.38539 0,2.42243 0,2.45939 0,2.49626 0,2.53308 0,2.56981 0,2.60645 0,2.643 0,2.67949 0,2.7159 0,2.75221 0,2.78844 0,2.82458 0,2.86065 0,2.89662 0,2.93249 0,2.96829 0,3.004 0,3.03961 0,3.07514 0,3.11056 0,3.14591 0,3.18114 0,3.21629 0,3.25133 0,3.28628 0,3.32115 0,0 1.265549,-2.87741 1.263877,-2.8345 1.262223,-2.79172 1.260597,-2.74902 1.258987,-2.70642 1.257409,-2.66394 1.255851,-2.62154 1.254311,-2.57924 1.252792,-2.53703 1.251301,-2.49492 1.24984,-2.4529 1.24838,-2.41095 1.24695,-2.36911 1.24556,-2.32734 1.24417,-2.28566 1.2428,-2.24407 1.24146,-2.20254 1.24014,-2.1611 1.23884,-2.11976 1.23756,-2.07846 1.2363,-2.03724 1.23506,-1.99611 1.23384,-1.95505 1.23265,-1.91405 1.23146,-1.8731 1.23029,-1.83225 1.22916,-1.79146 1.22803,-1.7507 1.22693,-1.71005 1.22585,-1.66944 1.22477,-1.62886 1.22372,-1.58841 1.22269,-1.54792 1.22168,-1.50756 1.22068,-1.46724 1.21971,-1.42695 1.21873,-1.38674 1.21779,-1.34654 1.21686,-1.30641 1.21594,-1.26634 1.21506,-1.22632 1.21417,-1.1863 1.2133,-1.14636 1.21245,-1.10646 1.21161,-1.06659 1.2108,-1.02677 1.20998,-0.98697 1.2092,-0.94721 1.2084,-0.90751 1.20764,-0.86783 1.20688,-0.82818 1.20615,-0.78857 1.2054,-0.74898 1.20469,-0.70945 1.20397,-0.66991 1.20329,-0.63043 1.20259,-0.59094 1.2019,-0.55153 1.20125,-0.51212 1.20058,-0.4727 1.19993,-0.43337 1.19928,-0.39403 1.19864,-0.35469 1.19802,-0.31541 1.19738,-0.27613 1.19677,-0.23689 1.19615,-0.19767 1.19554,-0.15844 1.19492,-0.11928 1.19432,-0.0801 1.19369,-0.041 1.19312,-0.002 1.1925,0.0373 1.19188,0.0764 1.1913,0.11542 1.19069,0.15449 1.19008,0.19349 1.18947,0.23251 1.18885,0.27148 1.18825,0.31047 1.18762,0.3494 1.18699,0.38832 1.18635,0.42722 1.18573,0.46609 1.18507,0.50497 1.18442,0.54377 1.18378,0.58258 1.1831,0.62137 1.18242,0.6601 1.18175,0.69882 1.18105,0.73752 1.18034,0.77618 1.17964,0.81482 1.17891,0.85342 1.17819,0.89201 1.17743,0.93053 1.17668,0.96904 1.17592,1.00753 1.17513,1.04594 1.17436,1.08437 1.17354,1.12269 1.17273,1.16104 1.17189,1.19931 1.17106,1.23755 1.1702,1.27576 1.16936,1.31392 1.16846,1.35203 1.16757,1.39011 1.16665,1.4281 1.16574,1.46611 1.16483,1.50401 1.16386,1.5419 1.16291,1.57973 1.16192,1.61749 1.16094,1.65522 1.15994,1.69288 1.15892,1.7305 1.1579,1.76807 1.15684,1.80557 1.15578,1.843 1.15472,1.88039 1.15361,1.91771 1.15253,1.95499 1.15141,1.99218 1.15027,2.02933 1.14913,2.06639 1.14796,2.10341 1.14679,2.14035 1.14562,2.17723 1.14439,2.21405 1.14319,2.25078 1.14197,2.28744 1.1407,2.32406 1.13945,2.36056 1.13817,2.39703 1.1369,2.43342 1.13559,2.46971 1.13424,2.50595 1.13295,2.5421 1.1316,2.57817 1.13023,2.61416 1.12884,2.65009 1.12751,2.68593 1.12607,2.72168 1.12466,2.75735 1.12323,2.79294 1.1218,2.82845 1.12033,2.86387 1.11886,2.89922 1.1174,2.93445 1.11588,2.96963 1.11438,3.0047 1.11288,3.03967 1.11133,3.07459 1.10977,3.10939 1.10822,3.1441 1.10666,3.17873 1.10507,3.21324 1.10345,3.24771 1.10184,3.28201 1.10022,3.31629 1.0986,3.35043 1.09693,3.38449 1.09527,3.41846 1.0936,3.4523 1.09192,3.48609 1.09021,3.51974 1.0885,3.55328 1.08679,3.58677 1.08505,3.62014 0,0 2.02839,-2.99112 2.02526,-2.9476 2.02222,-2.9042 2.0192,-2.8609 2.0162,-2.81775 2.01328,-2.77466 2.01037,-2.73169 2.00751,-2.68884 2.00464,-2.64606 2.00183,-2.60342 1.99908,-2.56086 1.99631,-2.5184 1.99362,-2.47601 1.99097,-2.43375 1.98831,-2.39154 1.98572,-2.34947 1.98312,-2.30747 1.98059,-2.26553 1.97806,-2.22371 1.97562,-2.18196 1.97314,-2.14029 1.97071,-2.09871 1.96832,-2.0572 1.96597,-2.01577 1.96366,-1.97441 1.9613,-1.93313 1.95908,-1.89194 1.95678,-1.8508 1.95456,-1.80974 1.95239,-1.76872 1.9502,-1.72783 1.94809,-1.68695 1.94595,-1.64616 1.94385,-1.60543 1.9418,-1.56475 1.93976,-1.52414 1.93775,-1.48362 1.93573,-1.44311 1.93377,-1.40267 1.93183,-1.3623 1.92987,-1.32199 1.92801,-1.28171 1.92611,-1.24148 1.92423,-1.20133 1.92242,-1.16122 1.9206,-1.12114 1.91876,-1.08112 1.91699,-1.04117 1.91525,-1.00123 1.91348,-0.96135 1.91178,-0.92154 1.91,-0.88172 1.90839,-0.84199 1.90665,-0.80228 1.90499,-0.76262 1.90335,-0.72297 1.90171,-0.6834 1.90008,-0.64383 1.89847,-0.60434 1.89691,-0.56485 1.8953,-0.52542 1.8937,-0.48601 1.89219,-0.44664 1.89056,-0.4073 1.88907,-0.368 1.88748,-0.32873 1.88599,-0.28951 1.88446,-0.25029 1.88296,-0.21113 1.88141,-0.172 1.87994,-0.13289 1.87842,-0.0938 1.87692,-0.0548 1.87543,-0.0158 1.87393,0.0232 1.87247,0.0622 1.87097,0.10107 1.86948,0.13997 1.86801,0.17883 1.86649,0.21766 1.86502,0.25645 1.86352,0.29521 1.86203,0.33396 1.86054,0.37263 1.85904,0.41132 1.85751,0.44995 1.85602,0.48854 1.85452,0.52711 1.853,0.56566 1.85147,0.60416 1.84991,0.64261 1.84842,0.68106 1.84683,0.71945 1.84528,0.7578 1.84372,0.79612 1.84216,0.83443 1.84055,0.87267 1.83896,0.91087 1.83737,0.94905 1.83575,0.98718 1.83408,1.02527 1.83249,1.06331 1.83081,1.10133 1.82916,1.13929 1.82745,1.1772 1.82578,1.21509 1.82407,1.25291 1.82238,1.29069 1.82059,1.32845 1.81891,1.3661 1.81708,1.40378 1.81537,1.44135 1.81353,1.47889 1.81171,1.51639 1.80991,1.55382 1.8081,1.5912 1.80622,1.62854 1.80429,1.6658 1.80249,1.70304 1.80059,1.7402 1.79859,1.7773 1.79669,1.81435 1.79474,1.85134 1.79278,1.88826 1.79078,1.92513 1.78875,1.96194 1.78675,1.99868 1.78473,2.03537 1.78265,2.07196 1.78052,2.10852 1.7785,2.145 1.77637,2.18141 1.77423,2.21776 1.77215,2.25403 1.7699,2.29025 1.76776,2.32639 1.76557,2.36246 1.7633,2.3984 1.76105,2.43436 1.75891,2.47021 1.75653,2.50596 1.75427,2.54165 1.75196,2.57727 1.74963,2.6128 1.74732,2.64828 1.74499,2.68362 1.74255,2.71897 1.74018,2.75415 1.73773,2.7893 1.73535,2.82435 1.73285,2.85931 1.73041,2.89423 1.72796,2.92901 1.72541,2.96372 1.7229,2.99835 1.72033,3.0329 1.71784,3.06732 1.71527,3.10171 0,0 -0.49921,-3.32449 -0.49847,-3.28091 -0.4978,-3.23743 -0.49707,-3.19409 -0.49646,-3.15082 -0.49573,-3.10773 -0.49512,-3.0647 -0.49444,-3.02178 -0.49378,-2.97901 -0.49322,-2.93634 -0.49256,-2.89374 -0.49194,-2.85128 -0.49133,-2.80893 -0.49085,-2.76664 -0.49017,-2.72448 -0.48956,-2.68241 -0.48908,-2.64044 -0.48852,-2.59857 -0.48798,-2.55676 -0.48737,-2.51508 -0.48694,-2.47348 -0.48638,-2.43191 -0.48591,-2.39054 -0.48535,-2.34915 -0.48486,-2.30789 -0.48444,-2.26669 -0.48394,-2.22561 -0.48346,-2.18455 -0.48304,-2.14362 -0.48254,-2.10273 -0.48218,-2.06192 -0.48169,-2.02118 -0.48126,-1.98053 -0.48089,-1.93993 -0.48047,-1.89938 -0.48011,-1.85894 -0.47967,-1.81852 -0.47931,-1.77819 -0.47894,-1.73791 -0.47852,-1.69769 -0.47827,-1.65754 -0.47791,-1.61743 -0.47753,-1.57737 -0.47718,-1.53739 -0.47687,-1.49743 -0.47662,-1.45755 -0.47626,-1.41771 -0.47595,-1.37792 -0.47571,-1.33816 -0.4754,-1.29847 -0.4751,-1.2588 -0.47485,-1.21918 -0.47461,-1.17961 -0.47437,-1.14007 -0.47406,-1.10057 -0.47387,-1.06113 -0.47357,-1.0217 -0.47345,-0.9823 -0.47321,-0.94295 -0.47296,-0.90362 -0.47278,-0.86434 -0.47259,-0.82504 -0.47242,-0.78583 -0.47223,-0.74661 -0.47204,-0.70743 -0.47186,-0.66826 -0.47174,-0.62912 -0.47156,-0.59001 -0.47144,-0.5509 -0.47125,-0.51183 -0.47119,-0.47276 -0.47095,-0.43373 -0.47095,-0.39468 -0.4707,-0.35569 -0.4707,-0.31668 -0.47052,-0.27769 -0.4704,-0.23873 -0.47034,-0.19973 -0.47027,-0.1608 -0.4701,-0.12184 -0.47003,-0.0829 -0.46997,-0.044 -0.46979,-0.005 -0.46978,0.0339 -0.46967,0.0728 -0.46954,0.11169 -0.46942,0.15058 -0.46943,0.18947 -0.46923,0.22831 -0.46912,0.2672 -0.46906,0.30602 -0.46899,0.34489 -0.46881,0.3837 -0.46863,0.42251 -0.46857,0.46132 -0.46844,0.50011 -0.46832,0.53886 -0.46814,0.57763 -0.46796,0.61633 -0.46783,0.65506 -0.46772,0.69372 -0.46746,0.73239 -0.46735,0.77103 -0.4671,0.80965 -0.46698,0.84822 -0.4668,0.88678 -0.46655,0.92531 -0.46637,0.9638 -0.46613,1.00228 -0.46594,1.04069 -0.46564,1.0791 -0.46551,1.11747 -0.46521,1.15577 -0.46497,1.19408 -0.46466,1.23233 -0.46448,1.27054 -0.46417,1.3087 -0.46387,1.34685 -0.46362,1.3849 -0.46332,1.42296 -0.46301,1.46095 -0.46277,1.49889 -0.4624,1.53678 -0.46204,1.57464 -0.46179,1.61244 -0.46142,1.65017 -0.46112,1.68787 -0.4607,1.72551 -0.46045,1.76309 -0.46002,1.80063 -0.45965,1.83809 -0.45929,1.8755 -0.45893,1.91286 -0.45849,1.95015 -0.45819,1.98738 -0.45771,2.02455 -0.45733,2.06165 -0.45691,2.09869 -0.45655,2.13567 -0.45605,2.17257 -0.45563,2.20942 -0.4552,2.24617 -0.45477,2.28288 -0.45429,2.31952 -0.45385,2.35605 -0.45337,2.39254 -0.45288,2.42896 -0.45246,2.4653 -0.45196,2.50156 -0.45148,2.53775 -0.45093,2.57382 -0.45047,2.60989 -0.44992,2.64582 -0.44946,2.68167 -0.44891,2.71747 -0.44837,2.75317 -0.44784,2.78879 -0.4473,2.82431 -0.44678,2.85977 -0.44622,2.89514 -0.44565,2.93042 -0.4451,2.96561 -0.44452,3.0007 -0.44394,3.03574 -0.44336,3.07061 -0.44278,3.10547 -0.4422,3.14023 -0.44156,3.17487 -0.44101,3.20941 -0.44037,3.24389 -0.43978,3.27823 -0.43912,3.31253 -0.43851,3.34668 -0.4379,3.38077 -0.43725,3.41477 -0.43665,3.44863 -0.43594,3.48243 -0.4353,3.51608 -0.43464,3.54971 -0.43402,3.58316 -0.43332,3.61655 -0.43264,3.64984 -0.43198,3.68298 -0.4313,3.7161 -0.43064,3.74905 -0.42993,3.78192 -0.4292,3.81467 -0.42853,3.84732 0,0 -1.24737,-3.48468 -1.24545,-3.43994 -1.24353,-3.39532 -1.24161,-3.35083 -1.23975,-3.30646 -1.23794,-3.26224 -1.23609,-3.21811 -1.23431,-3.17413 -1.23249,-3.13028 -1.23083,-3.08649 -1.22903,-3.04288 -1.22739,-2.99932 -1.22568,-2.95594 -1.22403,-2.91263 -1.22238,-2.86941 -1.22079,-2.82636 -1.21921,-2.78335 -1.21765,-2.74048 -1.21613,-2.69769 -1.2146,-2.65503 -1.2131,-2.6124 -1.21167,-2.56994 -1.21015,-2.52756 -1.20877,-2.48523 -1.20733,-2.44302 -1.206,-2.40088 -1.20462,-2.35886 -1.20321,-2.31693 -1.20197,-2.27502 -1.20062,-2.23325 -1.19937,-2.19155 -1.19806,-2.14991 -1.19687,-2.10836 -1.19565,-2.0669 -1.19443,-2.02548 -1.19323,-1.98413 -1.19211,-1.9429 -1.19095,-1.90171 -1.18982,-1.86059 -1.18869,-1.81952 -1.18762,-1.77854 -1.18656,-1.73761 -1.18551,-1.69674 -1.18451,-1.65595 -1.18344,-1.6152 -1.1825,-1.57449 -1.18146,-1.53388 -1.18054,-1.49328 -1.17956,-1.45279 -1.17862,-1.4123 -1.17777,-1.37188 -1.17688,-1.33152 -1.17593,-1.29116 -1.17511,-1.25089 -1.17429,-1.21069 -1.1734,-1.17047 -1.17258,-1.13034 -1.17181,-1.09021 -1.17102,-1.05018 -1.17026,-1.01013 -1.16946,-0.97012 -1.16873,-0.93021 -1.16803,-0.89026 -1.16727,-0.8504 -1.16653,-0.81051 -1.1659,-0.77073 -1.16516,-0.73095 -1.16452,-0.69117 -1.16388,-0.65145 -1.16318,-0.61176 -1.16253,-0.57208 -1.16193,-0.53243 -1.16128,-0.49281 -1.16068,-0.45323 -1.16003,-0.41364 -1.15949,-0.3741 -1.15887,-0.33456 -1.15827,-0.29506 -1.15768,-0.25558 -1.15711,-0.21612 -1.15652,-0.17666 -1.15598,-0.13724 -1.15539,-0.0978 -1.15482,-0.0584 -1.15426,-0.0191 -1.15369,0.0202 -1.15314,0.0596 -1.15255,0.0989 -1.15201,0.13817 -1.15143,0.17743 -1.15085,0.21667 -1.15027,0.25591 -1.14972,0.29512 -1.14914,0.3343 -1.14853,0.37346 -1.14794,0.41262 -1.14737,0.45172 -1.14673,0.49083 -1.14615,0.5299 -1.14551,0.56894 -1.14493,0.60797 -1.14425,0.64698 -1.14359,0.68594 -1.14297,0.72489 -1.14231,0.76379 -1.14166,0.8027 -1.14093,0.84153 -1.14026,0.88037 -1.13956,0.91912 -1.13885,0.95792 -1.13815,0.99661 -1.13736,1.03534 -1.13666,1.07398 -1.13587,1.11258 -1.1351,1.15115 -1.13433,1.1897 -1.13355,1.22818 -1.13269,1.26663 -1.1319,1.30505 -1.13104,1.34342 -1.13022,1.38174 -1.12933,1.42002 -1.12848,1.45825 -1.12756,1.49643 -1.12668,1.53454 -1.12577,1.57263 -1.12484,1.61069 -1.12387,1.64862 -1.12293,1.68659 -1.12195,1.72442 -1.12097,1.76224 -1.11996,1.79999 -1.11896,1.83771 0,0 -1.8439,-1.0203 -1.84226,-0.97989 -1.84064,-0.93957 -1.83905,-0.89929 -1.83743,-0.85901 -1.83587,-0.81882 -1.83432,-0.77866 -1.83277,-0.73852 -1.83127,-0.69846 -1.82971,-0.65838 -1.82822,-0.61835 -1.82672,-0.5784 -1.82525,-0.53845 -1.82379,-0.49857 -1.82233,-0.45868 -1.82089,-0.41882 -1.81943,-0.37903 -1.81802,-0.33926 -1.81659,-0.2995 -1.81519,-0.25983 -1.81375,-0.22012 -1.81235,-0.18051 -1.81097,-0.14087 -1.80957,-0.10132 -1.80817,-0.0617 -1.80682,-0.0223 -1.80539,0.0173 -1.80402,0.0567 -1.80264,0.0962 -1.8013,0.13553 -1.7999,0.17493 -1.79849,0.21426 -1.79712,0.25357 -1.79571,0.29288 -1.79438,0.33209 -1.79297,0.37131 -1.79153,0.41052 -1.79019,0.44965 -1.78876,0.48876 -1.78735,0.52787 -1.78592,0.56692 -1.78452,0.60596 -1.78308,0.64493 -1.78164,0.68387 -1.78022,0.7228 -1.77871,0.76166 -1.7773,0.80054 -1.77579,0.83932 -1.77432,0.87812 -1.77283,0.91684 -1.77132,0.9555 -1.76977,0.9942"
                   style="fill:none;stroke:#0000ff;stroke-width:2.63888907;stroke-linecap:butt;stroke-linejoin:bevel;stroke-miterlimit:1;stroke-opacity:1;stroke-dasharray:8, 8;stroke-dashoffset:0"
                   id="path6216" />
              </g>
              <g
                 id="g6218"
                 transform="scale(3.1578946,3.1578947)">
                <path
                   inkscape:connector-curvature="0"
                   d="m 87.626793,216.63168 0.496239,0.10605 0.496246,0.11612 0.496239,0.12613 0.496246,0.13612 0.496239,0.14606 0.496246,0.15595 0.496239,0.16578 0.496246,0.1756 0.496239,0.18532 0.496246,0.19501 0.496239,0.20462 0.496246,0.2142 0.496239,0.22369 0.496246,0.23314 0.496239,0.2425 0.496246,0.25181 0.496239,0.26102 0.496246,0.27019 0.496239,0.27926 0.496246,0.28826 0.496239,0.29716 0.496246,0.30603 0.496247,0.31476 0.496238,0.32342 0.496247,0.33199 0.49624,0.3405 0.49624,0.34886 0.49624,0.35718 0.49625,0.36537 0.49624,0.37347 0.49624,0.38147 0.49624,0.38938 0.49625,0.39715 0.49624,0.40487 0.49625,0.41243 0.49623,0.4199 0.49625,0.42726 0.49624,0.43451 0.49625,0.44165 0.49623,0.44867 0.49625,0.45557 0.49624,0.46236 0.49625,0.469 0.49623,0.47556 0.49625,0.48198 0.49625,0.48827 0.49624,0.49444 0.49623,0.50049 0.49625,0.50639"
                   style="fill:none;stroke:#000000;stroke-width:3.95833302;stroke-linecap:butt;stroke-linejoin:round;stroke-miterlimit:10;stroke-opacity:1;stroke-dasharray:none"
                   id="path6220" />
              </g>
              <g
                 id="g6222"
                 transform="scale(3.1578946,3.1578947)">
                <path
                   inkscape:connector-curvature="0"
                   d="m 111.44643,231.95221 0.49625,0.50639 0.49625,0.51219 0.49624,0.51784 0.49623,0.52338 0.49625,0.52876 0.49625,0.53403 0.49624,0.53914 0.49624,0.54414 0.49624,0.549 0.49625,0.55372 0.49624,0.55829 0.49624,0.56275 0.49624,0.56703 0.49625,0.57121 0.49624,0.57523 0.49624,0.57911 0.49624,0.58287 0.49625,0.58646 0.49624,0.58992 0.49624,0.59322 0.49624,0.59642 0.49625,0.59942 0.49624,0.60233 0.49624,0.60505 0.49624,0.60767 0.49625,0.61011 0.49624,0.61242 0.49624,0.6146 0.49624,0.61661 0.49625,0.61848 0.49624,0.62022 0.49624,0.6218 0.49625,0.62326 0.49625,0.62454 0.49623,0.6257 0.49624,0.62673 0.49625,0.62759 0.49625,0.62833 0.49623,0.62891 0.49624,0.62934 0.49625,0.62966 0.49625,0.62981 0.49623,0.62985 0.49624,0.62973 0.49625,0.62945 0.49625,0.62909 0.49623,0.62854 0.49624,0.62787 0.49625,0.62708 0.49625,0.62613 0.49624,0.62506"
                   style="fill:none;stroke:#000000;stroke-width:3.95833302;stroke-linecap:butt;stroke-linejoin:round;stroke-miterlimit:10;stroke-opacity:1;stroke-dasharray:none"
                   id="path6224" />
              </g>
              <g
                 id="g6226"
                 transform="scale(3.1578946,3.1578947)">
                <path
                   inkscape:connector-curvature="0"
                   d="m 136.25858,261.65363 0.49624,0.62506 0.49623,0.62387 0.49625,0.62249 0.49625,0.62107 0.49623,0.61944 0.49624,0.61771 0.49625,0.61588 0.49625,0.61389 0.49624,0.61178 0.49623,0.60953 0.49625,0.60718 0.49625,0.6047 0.49624,0.60212 0.49623,0.59939 0.49625,0.59656 0.49625,0.59363 0.49624,0.59051 0.49623,0.58737 0.49625,0.58408 0.49625,0.58066 0.49624,0.57715 0.49623,0.57354 0.49625,0.5698 0.49625,0.56598 0.49624,0.56207 0.49625,0.55801 0.49623,0.55387 0.49625,0.54968 0.49624,0.54532 0.49623,0.54092 0.49625,0.53641 0.49625,0.53183 0.49624,0.5271 0.49625,0.52237 0.49623,0.51748 0.49625,0.51255 0.49624,0.50754 0.49623,0.50244 0.49625,0.49725 0.49625,0.492 0.49624,0.48667 0.49625,0.48129 0.49623,0.4758 0.49625,0.47031 0.49624,0.46469 0.49625,0.45904 0.49623,0.45331 0.49625,0.44754 0.49624,0.44171 0.49625,0.43586 0.49625,0.42987"
                   style="fill:none;stroke:#000000;stroke-width:3.95833302;stroke-linecap:butt;stroke-linejoin:round;stroke-miterlimit:10;stroke-opacity:1;stroke-dasharray:none"
                   id="path6228" />
              </g>
              <g
                 id="g6230"
                 transform="scale(3.1578946,3.1578947)">
                <path
                   inkscape:connector-curvature="0"
                   d="m 161.07071,289.14008 0.49625,0.42987 0.49623,0.42392 0.49624,0.41784 0.49625,0.41178 0.49623,0.40567 0.49625,0.3995 0.49624,0.39328 0.49625,0.38703 0.49625,0.38076 0.49623,0.37445 0.49624,0.36811 0.49625,0.36175 0.49623,0.35535 0.49625,0.34891 0.49624,0.3425 0.49625,0.33599 0.49625,0.32953 0.49623,0.32306 0.49624,0.31653 0.49625,0.31 0.49625,0.3035 0.49623,0.29693 0.49624,0.29041 0.49625,0.28384 0.49625,0.27731 0.49624,0.27076 0.49623,0.26422 0.49625,0.25769 0.49623,0.25116 0.49625,0.24463 0.49624,0.23812 0.49625,0.23163 0.49625,0.22516 0.49623,0.21869 0.49624,0.21225 0.49625,0.20584 0.49625,0.1994 0.49624,0.19306 0.49623,0.1867 0.49625,0.18042 0.49623,0.17411 0.49626,0.16784 0.49625,0.16162 0.49623,0.15546 0.49625,0.14929 0.49623,0.14319 0.49624,0.13715 0.49625,0.1311 0.49625,0.12512 0.49624,0.11921 0.49623,0.11331"
                   style="fill:none;stroke:#000000;stroke-width:3.95833302;stroke-linecap:butt;stroke-linejoin:round;stroke-miterlimit:10;stroke-opacity:1;stroke-dasharray:none"
                   id="path6232" />
              </g>
              <g
                 id="g6234"
                 transform="scale(3.1578946,3.1578947)">
                <path
                   inkscape:connector-curvature="0"
                   d="m 185.88284,302.85172 0.49623,0.11331 0.49625,0.10748 0.49625,0.10168 0.49624,0.096 0.49625,0.0903 0.49623,0.0847 0.49625,0.0791 0.49623,0.0736 0.49626,0.0682 0.49623,0.0628 0.49625,0.0575 0.49624,0.0522 0.49623,0.047 0.49625,0.0419 0.49625,0.0368 0.49624,0.0319 0.49623,0.0269 0.49625,0.0221 0.49625,0.0173 0.49624,0.0126 0.49625,0.008 0.49623,0.003 0.49625,-0.001 0.49624,-0.005 0.49625,-0.01 0.49625,-0.014 0.49623,-0.0182 0.49624,-0.0223 0.49623,-0.0262 0.49625,-0.0302 0.49625,-0.034 0.49624,-0.0378 0.49625,-0.0414 0.49623,-0.045 0.49625,-0.0485 0.49624,-0.0519 0.49625,-0.0553 0.49625,-0.0585 0.49623,-0.0616 0.49624,-0.0647 0.49624,-0.0677 0.49626,-0.0706 0.49624,-0.0734 0.49623,-0.0761 0.49625,-0.0787 0.49623,-0.0813 0.49625,-0.0837 0.49624,-0.0861 0.49625,-0.0883 0.49625,-0.0905 0.49623,-0.0926"
                   style="fill:none;stroke:#000000;stroke-width:3.95833302;stroke-linecap:butt;stroke-linejoin:round;stroke-miterlimit:10;stroke-opacity:1;stroke-dasharray:none"
                   id="path6236" />
              </g>
              <g
                 id="g6238"
                 transform="scale(3.1578946,3.1578947)">
                <path
                   inkscape:connector-curvature="0"
                   d="m 210.69498,302.66385 0.49623,-0.0926 0.49624,-0.0946 0.49625,-0.0965 0.49625,-0.0984 0.49623,-0.1001 0.49624,-0.10175 0.49625,-0.1033 0.49623,-0.10479 0.49626,-0.10618 0.49623,-0.10748 0.49625,-0.10867 0.49625,-0.1098 0.49623,-0.11087 0.49624,-0.11179 0.49625,-0.11267 0.49625,-0.11347 0.49623,-0.11416 0.49624,-0.11478 0.49625,-0.11532 0.49625,-0.11579 0.49624,-0.11615 0.49623,-0.11642 0.49625,-0.11664 0.49623,-0.11679 0.49625,-0.11685 0.49626,-0.11679 0.49623,-0.11673 0.49625,-0.11655 0.49623,-0.11627 0.49624,-0.11597 0.49625,-0.11557 0.49625,-0.11511 0.49624,-0.11456 0.49623,-0.11396 0.49625,-0.11328 0.49625,-0.11252 0.49624,-0.11172 0.49625,-0.11084 0.49623,-0.10989 0.49625,-0.10889 0.49623,-0.10782 0.49625,-0.10669 0.49624,-0.10553 0.49625,-0.10425 0.49624,-0.10296 0.49624,-0.1016 0.49624,-0.10019 0.49625,-0.0987 0.49624,-0.0972 0.49625,-0.0956 0.49623,-0.094"
                   style="fill:none;stroke:#000000;stroke-width:3.95833302;stroke-linecap:butt;stroke-linejoin:round;stroke-miterlimit:10;stroke-opacity:1;stroke-dasharray:none"
                   id="path6240" />
              </g>
              <g
                 id="g6242"
                 transform="scale(3.1578946,3.1578947)">
                <path
                   inkscape:connector-curvature="0"
                   d="m 235.50711,297.21869 0.49623,-0.094 0.49625,-0.0923 0.49624,-0.0907 0.49625,-0.0889 0.49623,-0.0871 0.49625,-0.0852 0.49624,-0.0834 0.49624,-0.0815 0.49626,-0.0795 0.49623,-0.0775 0.49624,-0.0755 0.49624,-0.0734 0.49624,-0.0713 0.49625,-0.0692 0.49624,-0.067 0.49625,-0.0648 0.49623,-0.0626 0.49625,-0.0604 0.49624,-0.0581 0.49625,-0.0559 0.49623,-0.0536 0.49626,-0.0513 0.49623,-0.0489 0.49624,-0.0466 0.49626,-0.0442 0.49624,-0.0419 0.49623,-0.0395 0.49624,-0.0371 0.49626,-0.0347 0.49623,-0.0323 0.49624,-0.0299 0.49625,-0.0275 0.49625,-0.0251 0.49623,-0.0227 0.49625,-0.0203 0.49624,-0.0179 0.49625,-0.0155 0.49623,-0.0131 0.49626,-0.0107 0.49623,-0.008 0.49623,-0.006 0.49623,-0.004 0.49628,-0.001 0.49622,0.001 0.49624,0.003 0.49625,0.006 0.49625,0.008 0.49624,0.0102 0.49625,0.0124 0.49624,0.0146 0.49625,0.0168"
                   style="fill:none;stroke:#000000;stroke-width:3.95833302;stroke-linecap:butt;stroke-linejoin:round;stroke-miterlimit:10;stroke-opacity:1;stroke-dasharray:none"
                   id="path6244" />
              </g>
              <g
                 id="g6246"
                 transform="scale(3.1578946,3.1578947)">
                <path
                   inkscape:connector-curvature="0"
                   d="m 260.31924,295.12369 0.49625,0.0168 0.49622,0.019 0.49627,0.0211 0.49622,0.0232 0.49625,0.0253 0.49624,0.0273 0.49625,0.0293 0.49624,0.0313 0.49622,0.0333 0.49628,0.0352 0.49621,0.0371 0.49625,0.0389 0.49625,0.0407 0.49624,0.0425 0.49625,0.0442 0.49624,0.0458 0.49625,0.0475 0.49625,0.0491 0.49621,0.0506 0.49628,0.0521 0.49622,0.0536 0.49624,0.055 0.49625,0.0564 0.49624,0.0577 0.49625,0.059 0.49622,0.0602 0.49627,0.0613 0.49622,0.0625 0.49625,0.0635 0.49624,0.0645 0.49625,0.0655 0.49625,0.0664 0.49624,0.0672 0.49625,0.068 0.49624,0.0688 0.49622,0.0695 0.49625,0.0701 0.49624,0.0707 0.49625,0.0712 0.49625,0.0717 0.49624,0.072 0.49625,0.0724 0.49621,0.0727 0.49625,0.0729 0.49625,0.0731 0.49624,0.0732 0.49625,0.0733 0.49625,0.0733 0.49624,0.0732 0.49625,0.0731 0.49624,0.0729"
                   style="fill:none;stroke:#000000;stroke-width:3.95833302;stroke-linecap:butt;stroke-linejoin:round;stroke-miterlimit:10;stroke-opacity:1;stroke-dasharray:none"
                   id="path6248" />
              </g>
              <g
                 id="g6250"
                 transform="scale(3.1578946,3.1578947)">
                <path
                   inkscape:connector-curvature="0"
                   d="m 285.13138,297.8457 0.49624,0.0729 0.49625,0.0727 0.49622,0.0724 0.49624,0.072 0.49625,0.0717 0.49625,0.0712 0.49624,0.0707 0.49625,0.0701 0.49624,0.0694 0.49622,0.0687 0.49625,0.068 0.49624,0.0672 0.49625,0.0663 0.49625,0.0654 0.49624,0.0644 0.49625,0.0634 0.49624,0.0623 0.49622,0.0612 0.49628,0.06 0.49621,0.0588 0.49625,0.0575 0.49625,0.0562 0.49624,0.0548 0.49625,0.0533 0.49621,0.0519 0.49628,0.0503 0.49622,0.0488 0.49624,0.0471 0.49625,0.0455 0.49625,0.0437 0.49624,0.042 0.49625,0.0402 0.49625,0.0383 0.49624,0.0365 0.49622,0.0346 0.49627,0.0326 0.49622,0.0306 0.49625,0.0286 0.49624,0.0265 0.49625,0.0244 0.49625,0.0223 0.49621,0.0201 0.49628,0.0179 0.49621,0.0157 0.49625,0.0134 0.49625,0.0112 0.49624,0.009 0.49625,0.007 0.49625,0.004 0.49624,0.002 0.49625,-5.5e-4"
                   style="fill:none;stroke:#000000;stroke-width:3.95833302;stroke-linecap:butt;stroke-linejoin:round;stroke-miterlimit:10;stroke-opacity:1;stroke-dasharray:none"
                   id="path6252" />
              </g>
              <g
                 id="g6254"
                 transform="scale(3.1578946,3.1578947)">
                <path
                   inkscape:connector-curvature="0"
                   d="m 309.94351,300.15988 0.49625,-5.5e-4 0.49621,-0.003 0.49628,-0.005 0.49622,-0.008 0.49624,-0.0103 0.49625,-0.0128 0.49625,-0.0152 0.49624,-0.0177 0.49622,-0.0202 0.49627,-0.0227 0.49622,-0.0252 0.49625,-0.0278 0.49624,-0.0303 0.49625,-0.0328 0.49625,-0.0353 0.49624,-0.0378 0.49625,-0.0403 0.49625,-0.0428 0.49621,-0.0454 0.49625,-0.0478 0.49624,-0.0503 0.49625,-0.0528 0.49625,-0.0553 0.49624,-0.0577 0.49625,-0.0601 0.49621,-0.0626 0.49628,-0.065 0.49622,-0.0673 0.49624,-0.0697 0.49625,-0.072 0.49625,-0.0743 0.49624,-0.0766 0.49625,-0.0788 0.49625,-0.081 0.49624,-0.0833 0.49622,-0.0854 0.49624,-0.0875 0.49625,-0.0896 0.49625,-0.0916 0.49624,-0.0936 0.49625,-0.0956 0.49625,-0.0975 0.49621,-0.0994 0.49625,-0.1012 0.49624,-0.10299 0.49625,-0.10474 0.49625,-0.10638 0.49624,-0.10807 0.49625,-0.10962 0.49625,-0.11114 0.49621,-0.11261"
                   style="fill:none;stroke:#000000;stroke-width:3.95833302;stroke-linecap:butt;stroke-linejoin:round;stroke-miterlimit:10;stroke-opacity:1;stroke-dasharray:none"
                   id="path6256" />
              </g>
              <g
                 id="g6258"
                 transform="scale(3.1578946,3.1578947)">
                <path
                   inkscape:connector-curvature="0"
                   d="m 334.75565,297.18741 0.49621,-0.11261 0.49628,-0.11405 0.49621,-0.11538 0.49625,-0.1167 0.49625,-0.11792 0.49624,-0.11911 0.49625,-0.12021 0.49622,-0.12125 0.49627,-0.12222 0.49622,-0.12317 0.49624,-0.12396 0.49625,-0.12479 0.49625,-0.12546 0.49624,-0.12609 0.49625,-0.12665 0.49625,-0.12714 0.49624,-0.12756 0.49622,-0.12787 0.49628,-0.12814 0.49621,-0.1283 0.49625,-0.12842 0.49624,-0.12842 0.49625,-0.12835 0.49625,-0.12821 0.49621,-0.12799 0.49628,-0.12765 0.49621,-0.12729 0.49625,-0.12677 0.49625,-0.12622 0.49624,-0.12555 0.49625,-0.12482 0.49625,-0.12396 0.49624,-0.12305 0.49625,-0.12204 0.49621,-0.12094 0.49628,-0.11975 0.49622,-0.11847 0.49624,-0.11706 0.49625,-0.11564 0.49625,-0.11404 0.49624,-0.1124 0.49622,-0.11065 0.49628,-0.10883 0.49621,-0.10687 0.49625,-0.10486 0.49624,-0.10272 0.49625,-0.10053 0.49625,-0.0982 0.49624,-0.0958 0.49625,-0.0933 0.49625,-0.0907"
                   style="fill:none;stroke:#000000;stroke-width:3.95833302;stroke-linecap:butt;stroke-linejoin:round;stroke-miterlimit:10;stroke-opacity:1;stroke-dasharray:none"
                   id="path6260" />
              </g>
              <g
                 id="g6262"
                 transform="scale(3.1578946,3.1578947)">
                <path
                   inkscape:connector-curvature="0"
                   d="m 359.56778,291.23004 0.49625,-0.0907 0.49621,-0.088 0.49628,-0.0852 0.49621,-0.0824 0.49625,-0.0793 0.49625,-0.0763 0.49624,-0.0731 0.49625,-0.0699 0.49622,-0.0665 0.49627,-0.0631 0.49622,-0.0596 0.49624,-0.0559 0.49625,-0.0522 0.49625,-0.0484 0.49624,-0.0445 0.49625,-0.0405 0.49625,-0.0364 0.49624,-0.0322 0.49622,-0.028 0.49624,-0.0236 0.49625,-0.0192 0.49625,-0.0147 0.49624,-0.01 0.49625,-0.005 0.49625,-5.8e-4 0.49621,0.004 0.49625,0.009 0.49624,0.0143 0.49625,0.0194 0.49625,0.0246 0.49624,0.0298 0.49625,0.0352 0.49625,0.0406 0.49621,0.0461 0.49628,0.0517 0.49622,0.0573 0.49624,0.063 0.49625,0.0688 0.49624,0.0746 0.49625,0.0806 0.49625,0.0866 0.49624,0.0926 0.49622,0.0987 0.49625,0.10492 0.49624,0.11118 0.49625,0.11746 0.49624,0.12381 0.49625,0.13022 0.49625,0.13669 0.49624,0.14321 0.49622,0.14975"
                   style="fill:none;stroke:#000000;stroke-width:3.95833302;stroke-linecap:butt;stroke-linejoin:round;stroke-miterlimit:10;stroke-opacity:1;stroke-dasharray:none"
                   id="path6264" />
              </g>
              <g
                 id="g6266"
                 transform="scale(3.1578946,3.1578947)">
                <path
                   inkscape:connector-curvature="0"
                   d="m 384.37991,291.74911 0.49622,0.14975 0.49628,0.15641 0.49621,0.16305 0.49625,0.16977 0.49624,0.17652 0.49625,0.18331 0.49625,0.19016 0.49621,0.19705 0.49628,0.20395 0.49622,0.21088 0.49624,0.21786 0.49625,0.22489 0.49624,0.23193 0.49625,0.23898 0.49625,0.2461 0.49624,0.2532 0.49625,0.26035 0.49622,0.26748 0.49627,0.27466 0.49622,0.28186 0.49624,0.28906 0.49625,0.29627 0.49625,0.30347 0.49624,0.31073 0.49622,0.31793 0.49628,0.32519 0.49621,0.3324 0.49625,0.33966 0.49625,0.34686 0.49624,0.3541 0.49625,0.3613 0.49624,0.36853 0.49625,0.3757 0.49625,0.38287 0.49621,0.39002 0.49628,0.39715 0.49622,0.4043 0.49624,0.41138 0.49625,0.41842 0.49621,0.42548 0.49625,0.43249 0.49628,0.43946 0.49624,0.44641 0.49622,0.45328 0.49625,0.46017 0.49624,0.46698 0.49625,0.47376 0.49624,0.48046 0.49625,0.48719 0.49625,0.4938 0.49624,0.50037"
                   style="fill:none;stroke:#000000;stroke-width:3.95833302;stroke-linecap:butt;stroke-linejoin:round;stroke-miterlimit:10;stroke-opacity:1;stroke-dasharray:none"
                   id="path6268" />
              </g>
              <g
                 id="g6270"
                 transform="scale(3.1578946,3.1578947)">
                <path
                   inkscape:connector-curvature="0"
                   d="m 409.19205,307.83209 0.49624,0.50037 0.49622,0.5069 0.49625,0.51336 0.49624,0.51978 0.49628,0.52612 0.49621,0.53238 0.49625,0.53864 0.49625,0.54476 0.49621,0.55085 0.49625,0.55685 0.49625,0.56278 0.49627,0.56863 0.49622,0.57443 0.49624,0.58011 0.49625,0.58575 0.49625,0.59125 0.49621,0.59671 0.49625,0.60208 0.49628,0.60733 0.49624,0.61252 0.49622,0.61759 0.49624,0.62259 0.49625,0.62747 0.49622,0.63226 0.49624,0.63693 0.49628,0.64154 0.49625,0.64603 0.49621,0.65036 0.49625,0.65466 0.49625,0.65882 0.49624,0.66284 0.49622,0.66678 0.49627,0.67059 0.49625,0.67432 0.49625,0.67788 0.49621,0.68134 0.49625,0.68469 0.49625,0.6879 0.49621,0.69101 0.49628,0.69397 0.49624,0.69684 0.49625,0.69952 0.49622,0.70215 0.49624,0.70459 0.49625,0.70691 0.49625,0.7091 0.49624,0.71119 0.49625,0.7131 0.49624,0.71487 0.49625,0.71656 0.49622,0.71808"
                   style="fill:none;stroke:#000000;stroke-width:3.95833302;stroke-linecap:butt;stroke-linejoin:round;stroke-miterlimit:10;stroke-opacity:1;stroke-dasharray:none"
                   id="path6272" />
              </g>
              <g
                 id="g6274"
                 transform="scale(3.1578946,3.1578947)">
                <path
                   inkscape:connector-curvature="0"
                   d="m 434.00418,339.25809 0.49622,0.71808 0.49624,0.71945 0.49625,0.72067 0.49628,0.7218 0.49621,0.72275 0.49625,0.72354 0.49624,0.72424 0.49622,0.72477 0.49625,0.72515 0.49624,0.72541 0.49628,0.72549 0.49622,0.72544 0.49624,0.72525 0.49625,0.72491 0.49624,0.7244 0.49622,0.72378 0.49625,0.72299 0.49627,0.72208 0.49625,0.72098 0.49622,0.71975 0.49624,0.71836 0.49625,0.71686 0.49621,0.71518 0.49628,0.71334 0.49625,0.71137 0.49624,0.70926 0.49622,0.707 0.49625,0.70456 0.49624,0.70199 0.49625,0.69931 0.49625,0.69641 0.49624,0.69343 0.49625,0.69024 0.49624,0.68698 0.49622,0.68351 0.49625,0.6799 0.49624,0.67617 0.49628,0.67228 0.49622,0.66827 0.49624,0.66409 0.49625,0.65979 0.49621,0.65531 0.49625,0.65072 0.49625,0.646 0.49627,0.64111 0.49622,0.63608 0.49625,0.63095 0.49624,0.62567 0.49625,0.62024 0.49621,0.61469 0.49625,0.60901"
                   style="fill:none;stroke:#000000;stroke-width:3.95833302;stroke-linecap:butt;stroke-linejoin:round;stroke-miterlimit:10;stroke-opacity:1;stroke-dasharray:none"
                   id="path6276" />
              </g>
              <g
                 id="g6278"
                 transform="scale(3.1578946,3.1578947)">
                <path
                   inkscape:connector-curvature="0"
                   d="m 458.81628,374.00809 0.49625,0.60901 0.49628,0.60315 0.49624,0.59722 0.49622,0.59116 0.49625,0.58493 0.49624,0.57861 0.49622,0.57212 0.49624,0.56558 0.49628,0.55884 0.49625,0.55203 0.49621,0.54507 0.49625,0.538 0.49625,0.53085 0.49624,0.52353 0.49622,0.51614 0.49628,0.50861 0.49624,0.50098 0.49625,0.49325 0.49621,0.48542 0.49625,0.47744 0.49625,0.46942 0.49621,0.46125 0.49628,0.45303 0.49625,0.44467 0.49624,0.43625 0.49622,0.4277 0.49624,0.4191 0.49625,0.41037 0.49625,0.40158 0.49624,0.39273 0.49625,0.38373 0.49625,0.37473 0.49624,0.3656 0.49622,0.35641 0.49624,0.34714 0.49625,0.3378 0.49628,0.3284 0.49621,0.31891 0.49625,0.30942 0.49625,0.2998 0.49621,0.29013 0.49625,0.28046 0.49624,0.27066 0.49628,0.26086 0.49622,0.25101 0.49624,0.24106 0.49625,0.23114 0.49625,0.22113 0.49621,0.21109 0.49628,0.20102 0.49624,0.19092"
                   style="fill:none;stroke:#000000;stroke-width:3.95833302;stroke-linecap:butt;stroke-linejoin:round;stroke-miterlimit:10;stroke-opacity:1;stroke-dasharray:none"
                   id="path6280" />
              </g>
              <g
                 id="g6282"
                 transform="scale(3.1578946,3.1578947)">
                <path
                   inkscape:connector-curvature="0"
                   d="m 483.62845,395.13663 0.49624,0.19092 0.49625,0.18075 0.49622,0.17059 0.49624,0.1604 0.49625,0.15021 0.49622,0.13993 0.49627,0.12969 0.49625,0.11942 0.49625,0.10913 0.49621,0.0988 0.49625,0.0885 0.49624,0.0782 0.49625,0.0679 0.49625,0.0575 0.49624,0.0472 0.49625,0.0369 0.49625,0.0266 0.49621,0.0163 0.49625,0.006 0.49624,-0.004 0.49628,-0.0145 0.49622,-0.0247 0.49624,-0.0349 0.49625,-0.0451 0.49621,-0.0552 0.49625,-0.0653 0.49625,-0.0755 0.49627,-0.0855 0.49622,-0.0955 0.49625,-0.1055 0.49624,-0.11541 0.49625,-0.12531 0.49622,-0.13513 0.49624,-0.14493 0.49628,-0.15466 0.49624,-0.16434 0.49622,-0.17398 0.49625,-0.1835 0.49624,-0.19303 0.49622,-0.20245 0.49625,-0.21179 0.49627,-0.22113 0.49625,-0.23032 0.49621,-0.23947 0.49625,-0.24853 0.49625,-0.25754 0.49624,-0.26645 0.49622,-0.27527 0.49628,-0.28403 0.49624,-0.29266 0.49625,-0.30121"
                   style="fill:none;stroke:#000000;stroke-width:3.95833302;stroke-linecap:butt;stroke-linejoin:round;stroke-miterlimit:10;stroke-opacity:1;stroke-dasharray:none"
                   id="path6284" />
              </g>
              <g
                 id="g6286"
                 transform="scale(3.1578946,3.1578947)">
                <path
                   inkscape:connector-curvature="0"
                   d="m 508.44058,392.28598 0.49625,-0.30121 0.49621,-0.30972 0.49625,-0.31809 0.49625,-0.32635 0.49621,-0.33453 0.49628,-0.34266 0.49625,-0.35061 0.49624,-0.35849 0.49622,-0.36627 0.49628,-0.37394 0.49621,-0.38147 0.49622,-0.38894 0.49627,-0.39627 0.49628,-0.40348 0.49622,-0.41058 0.49621,-0.41757 0.49628,-0.42444 0.49621,-0.43118 0.49622,-0.43778 0.49628,-0.4443 0.49627,-0.45066 0.49622,-0.45691 0.49622,-0.46304 0.49627,-0.46899 0.49622,-0.47489 0.49628,-0.48056 0.49621,-0.48617 0.49628,-0.49164 0.49621,-0.49695 0.49622,-0.50214 0.49628,-0.50717 0.49621,-0.51208 0.49628,-0.51685 0.49622,-0.52148 0.49627,-0.52594 0.49622,-0.53031 0.49621,-0.53448 0.49628,-0.53854 0.49622,-0.54245 0.49627,-0.54621 0.49622,-0.5498 0.49628,-0.55332 0.49621,-0.55661 0.49628,-0.55978 0.49621,-0.56281 0.49622,-0.56567 0.49628,-0.56842 0.49627,-0.57098 0.49622,-0.57343 0.49622,-0.57568 0.49627,-0.57782"
                   style="fill:none;stroke:#000000;stroke-width:3.95833302;stroke-linecap:butt;stroke-linejoin:round;stroke-miterlimit:10;stroke-opacity:1;stroke-dasharray:none"
                   id="path6288" />
              </g>
              <g
                 id="g6290"
                 transform="scale(3.1578946,3.1578947)">
                <path
                   inkscape:connector-curvature="0"
                   d="m 533.25269,369.08414 0.49627,-0.57782 0.49622,-0.57981 0.49621,-0.5816 0.49628,-0.58331 0.49628,-0.58481 0.49621,-0.58618 0.49622,-0.58744 0.49628,-0.58847 0.49621,-0.58941 0.49622,-0.59018 0.49627,-0.59082 0.49628,-0.59128 0.49622,-0.59161 0.49621,-0.5918 0.49628,-0.5918 0.49622,-0.59167 0.49621,-0.59143 0.49628,-0.59101 0.49628,-0.59045 0.49621,-0.58972 0.49622,-0.5889 0.49627,-0.58789 0.49622,-0.58673 0.49628,-0.58548 0.49627,-0.58405 0.49622,-0.58246 0.49622,-0.58078 0.49627,-0.57891 0.49622,-0.57694 0.49621,-0.57483 0.49628,-0.57257 0.49628,-0.57019 0.49621,-0.56763 0.49622,-0.565 0.49628,-0.56219 0.49621,-0.5593 0.49622,-0.55624 0.49627,-0.55304 0.49628,-0.54978 0.49622,-0.54632 0.49621,-0.54279 0.49628,-0.53909 0.49622,-0.53534 0.49621,-0.5314 0.49628,-0.52738 0.49628,-0.52322 0.49621,-0.51898 0.49622,-0.51462 0.49627,-0.51013 0.49622,-0.50553 0.49622,-0.50082"
                   style="fill:none;stroke:#000000;stroke-width:3.95833302;stroke-linecap:butt;stroke-linejoin:round;stroke-miterlimit:10;stroke-opacity:1;stroke-dasharray:none"
                   id="path6292" />
              </g>
              <g
                 id="g6294"
                 transform="scale(3.1578946,3.1578947)">
                <path
                   inkscape:connector-curvature="0"
                   d="m 558.06482,340.64581 0.49622,-0.50082 0.49627,-0.49603 0.49628,-0.49112 0.49621,-0.48615 0.49622,-0.48099 0.49628,-0.4758 0.49621,-0.47048 0.49628,-0.46512 0.49628,-0.4596 0.49621,-0.45404 0.49622,-0.44833 0.49628,-0.4426 0.49621,-0.43677 0.49622,-0.43084 0.49627,-0.42481 0.49628,-0.41876 0.49622,-0.4126 0.49621,-0.40634 0.49628,-0.40005 0.49622,-0.39368 0.49621,-0.38724 0.49628,-0.38071 0.49627,-0.37417 0.49622,-0.36752 0.49622,-0.36081 0.49627,-0.3541 0.49622,-0.34729 0.49621,-0.34042 0.49628,-0.33353 0.49628,-0.32657 0.49621,-0.31955 0.49622,-0.31253 0.49628,-0.30545 0.49621,-0.29834 0.49622,-0.29117 0.49628,-0.28396 0.49627,-0.27677 0.49622,-0.2695 0.49621,-0.2622 0.49628,-0.25492 0.49622,-0.24759 0.49627,-0.24026 0.49622,-0.23285 0.49628,-0.2255 0.49621,-0.2181 0.49628,-0.2107 0.49621,-0.20328 0.49622,-0.19586 0.49628,-0.18841 0.49621,-0.181 0.49628,-0.17359"
                   style="fill:none;stroke:#000000;stroke-width:3.95833302;stroke-linecap:butt;stroke-linejoin:round;stroke-miterlimit:10;stroke-opacity:1;stroke-dasharray:none"
                   id="path6296" />
              </g>
              <g
                 id="g6298"
                 transform="scale(3.1578946,3.1578947)">
                <path
                   inkscape:connector-curvature="0"
                   d="m 582.87695,323.06058 0.49628,-0.17359"
                   style="fill:none;stroke:#000000;stroke-width:3.95833302;stroke-linecap:butt;stroke-linejoin:round;stroke-miterlimit:10;stroke-opacity:1;stroke-dasharray:none"
                   id="path6300" />
              </g>
              <g
                 id="g6302"
                 transform="scale(3.1578946,3.1578947)">
                <path
                   inkscape:connector-curvature="0"
                   d="M 90.789818,74.5 89.826248,72.173752 87.5,71.210182 85.173752,72.173752 84.210182,74.5 85.173752,76.826248 87.5,77.789818 89.826248,76.826248 90.789818,74.5 z"
                   style="fill:#ff0000;fill-opacity:1;fill-rule:nonzero;stroke:none"
                   id="path6304" />
              </g>
              <g
                 id="g6306"
                 transform="scale(3.1578946,3.1578947)">
                <path
                   inkscape:connector-curvature="0"
                   d="M 90.789818,75.5 89.826248,73.173752 87.5,72.210182 85.173752,73.173752 84.210182,75.5 85.173752,77.826248 87.5,78.789818 89.826248,77.826248 90.789818,75.5 z"
                   style="fill:#ff0000;fill-opacity:1;fill-rule:nonzero;stroke:none"
                   id="path6308" />
              </g>
              <g
                 id="g6310"
                 transform="scale(3.1578946,3.1578947)">
                <path
                   inkscape:connector-curvature="0"
                   d="M 90.789818,79.5 89.826248,77.173752 87.5,76.210182 85.173752,77.173752 84.210182,79.5 85.173752,81.826248 87.5,82.789818 89.826248,81.826248 90.789818,79.5 z"
                   style="fill:#ff0000;fill-opacity:1;fill-rule:nonzero;stroke:none"
                   id="path6312" />
              </g>
              <g
                 id="g6314"
                 transform="scale(3.1578946,3.1578947)">
                <path
                   inkscape:connector-curvature="0"
                   d="m 90.789818,107.5 -0.96357,-2.32625 -2.326248,-0.96357 -2.326248,0.96357 -0.96357,2.32625 0.96357,2.32625 2.326248,0.96357 2.326248,-0.96357 0.96357,-2.32625 z"
                   style="fill:#ff0000;fill-opacity:1;fill-rule:nonzero;stroke:none"
                   id="path6316" />
              </g>
              <g
                 id="g6318"
                 transform="scale(3.1578946,3.1578947)">
                <path
                   inkscape:connector-curvature="0"
                   d="m 90.789818,150.5 -0.96357,-2.32625 -2.326248,-0.96356 -2.326248,0.96356 -0.96357,2.32625 0.96357,2.32625 2.326248,0.96356 2.326248,-0.96356 0.96357,-2.32625 z"
                   style="fill:#ff0000;fill-opacity:1;fill-rule:nonzero;stroke:none"
                   id="path6320" />
              </g>
              <g
                 id="g6322"
                 transform="scale(3.1578946,3.1578947)">
                <path
                   inkscape:connector-curvature="0"
                   d="m 90.789818,208.5 -0.96357,-2.32625 -2.326248,-0.96356 -2.326248,0.96356 -0.96357,2.32625 0.96357,2.32625 2.326248,0.96356 2.326248,-0.96356 0.96357,-2.32625 z"
                   style="fill:#ff0000;fill-opacity:1;fill-rule:nonzero;stroke:none"
                   id="path6324" />
              </g>
              <g
                 id="g6326"
                 transform="scale(3.1578946,3.1578947)">
                <path
                   inkscape:connector-curvature="0"
                   d="m 90.789818,216.5 -0.96357,-2.32625 -2.326248,-0.96356 -2.326248,0.96356 -0.96357,2.32625 0.96357,2.32625 2.326248,0.96356 2.326248,-0.96356 0.96357,-2.32625 z"
                   style="fill:#ff0000;fill-opacity:1;fill-rule:nonzero;stroke:none"
                   id="path6328" />
              </g>
              <g
                 id="g6330"
                 transform="scale(3.1578946,3.1578947)">
                <path
                   inkscape:connector-curvature="0"
                   d="m 90.789818,216.5 -0.96357,-2.32625 -2.326248,-0.96356 -2.326248,0.96356 -0.96357,2.32625 0.96357,2.32625 2.326248,0.96356 2.326248,-0.96356 0.96357,-2.32625 z"
                   style="fill:#ff0000;fill-opacity:1;fill-rule:nonzero;stroke:none"
                   id="path6332" />
              </g>
              <g
                 id="g6334"
                 transform="scale(3.1578946,3.1578947)">
                <path
                   inkscape:connector-curvature="0"
                   d="m 94.789818,208.5 -0.96357,-2.32625 -2.326248,-0.96356 -2.326248,0.96356 -0.96357,2.32625 0.96357,2.32625 2.326248,0.96356 2.326248,-0.96356 0.96357,-2.32625 z"
                   style="fill:#ff0000;fill-opacity:1;fill-rule:nonzero;stroke:none"
                   id="path6336" />
              </g>
              <g
                 id="g6338"
                 transform="scale(3.1578946,3.1578947)">
                <path
                   inkscape:connector-curvature="0"
                   d="m 111.78982,174.5 -0.96357,-2.32625 -2.32625,-0.96356 -2.32625,0.96356 -0.96357,2.32625 0.96357,2.32625 2.32625,0.96356 2.32625,-0.96356 0.96357,-2.32625 z"
                   style="fill:#ff0000;fill-opacity:1;fill-rule:nonzero;stroke:none"
                   id="path6340" />
              </g>
              <g
                 id="g6342"
                 transform="scale(3.1578946,3.1578947)">
                <path
                   inkscape:connector-curvature="0"
                   d="m 135.78981,139.5 -0.96356,-2.32625 -2.32625,-0.96356 -2.32625,0.96356 -0.96356,2.32625 0.96356,2.32625 2.32625,0.96356 2.32625,-0.96356 0.96356,-2.32625 z"
                   style="fill:#ff0000;fill-opacity:1;fill-rule:nonzero;stroke:none"
                   id="path6344" />
              </g>
              <g
                 id="g6346"
                 transform="scale(3.1578946,3.1578947)">
                <path
                   inkscape:connector-curvature="0"
                   d="m 159.78981,119.5 -0.96356,-2.32625 -2.32625,-0.96357 -2.32625,0.96357 -0.96356,2.32625 0.96356,2.32625 2.32625,0.96357 2.32625,-0.96357 0.96356,-2.32625 z"
                   style="fill:#ff0000;fill-opacity:1;fill-rule:nonzero;stroke:none"
                   id="path6348" />
              </g>
              <g
                 id="g6350"
                 transform="scale(3.1578946,3.1578947)">
                <path
                   inkscape:connector-curvature="0"
                   d="m 183.78981,114.5 -0.96356,-2.32625 -2.32625,-0.96357 -2.32625,0.96357 -0.96356,2.32625 0.96356,2.32625 2.32625,0.96357 2.32625,-0.96357 0.96356,-2.32625 z"
                   style="fill:#ff0000;fill-opacity:1;fill-rule:nonzero;stroke:none"
                   id="path6352" />
              </g>
              <g
                 id="g6354"
                 transform="scale(3.1578946,3.1578947)">
                <path
                   inkscape:connector-curvature="0"
                   d="m 206.78981,126.5 -0.96356,-2.32625 -2.32625,-0.96357 -2.32625,0.96357 -0.96356,2.32625 0.96356,2.32625 2.32625,0.96356 2.32625,-0.96356 0.96356,-2.32625 z"
                   style="fill:#ff0000;fill-opacity:1;fill-rule:nonzero;stroke:none"
                   id="path6356" />
              </g>
              <g
                 id="g6358"
                 transform="scale(3.1578946,3.1578947)">
                <path
                   inkscape:connector-curvature="0"
                   d="m 230.78981,152.5 -0.96356,-2.32625 -2.32625,-0.96356 -2.32625,0.96356 -0.96356,2.32625 0.96356,2.32625 2.32625,0.96356 2.32625,-0.96356 0.96356,-2.32625 z"
                   style="fill:#ff0000;fill-opacity:1;fill-rule:nonzero;stroke:none"
                   id="path6360" />
              </g>
              <g
                 id="g6362"
                 transform="scale(3.1578946,3.1578947)">
                <path
                   inkscape:connector-curvature="0"
                   d="m 252.78981,193.5 -0.96356,-2.32625 -2.32625,-0.96356 -2.32625,0.96356 -0.96356,2.32625 0.96356,2.32625 2.32625,0.96356 2.32625,-0.96356 0.96356,-2.32625 z"
                   style="fill:#ff0000;fill-opacity:1;fill-rule:nonzero;stroke:none"
                   id="path6364" />
              </g>
              <g
                 id="g6366"
                 transform="scale(3.1578946,3.1578947)">
                <path
                   inkscape:connector-curvature="0"
                   d="m 275.78983,248.5 -0.96357,-2.32625 -2.32626,-0.96356 -2.32626,0.96356 -0.96357,2.32625 0.96357,2.32625 2.32626,0.96356 2.32626,-0.96356 0.96357,-2.32625 z"
                   style="fill:#ff0000;fill-opacity:1;fill-rule:nonzero;stroke:none"
                   id="path6368" />
              </g>
              <g
                 id="g6370"
                 transform="scale(3.1578946,3.1578947)">
                <path
                   inkscape:connector-curvature="0"
                   d="m 291.78983,298.5 -0.96357,-2.32626 -2.32626,-0.96357 -2.32626,0.96357 -0.96357,2.32626 0.96357,2.32626 2.32626,0.96357 2.32626,-0.96357 0.96357,-2.32626 z"
                   style="fill:#ff0000;fill-opacity:1;fill-rule:nonzero;stroke:none"
                   id="path6372" />
              </g>
              <g
                 id="g6374"
                 transform="scale(3.1578946,3.1578947)">
                <path
                   inkscape:connector-curvature="0"
                   d="m 291.78983,298.5 -0.96357,-2.32626 -2.32626,-0.96357 -2.32626,0.96357 -0.96357,2.32626 0.96357,2.32626 2.32626,0.96357 2.32626,-0.96357 0.96357,-2.32626 z"
                   style="fill:#ff0000;fill-opacity:1;fill-rule:nonzero;stroke:none"
                   id="path6376" />
              </g>
              <g
                 id="g6378"
                 transform="scale(3.1578946,3.1578947)">
                <path
                   inkscape:connector-curvature="0"
                   d="m 296.78983,290.5 -0.96357,-2.32626 -2.32626,-0.96357 -2.32626,0.96357 -0.96357,2.32626 0.96357,2.32626 2.32626,0.96357 2.32626,-0.96357 0.96357,-2.32626 z"
                   style="fill:#ff0000;fill-opacity:1;fill-rule:nonzero;stroke:none"
                   id="path6380" />
              </g>
              <g
                 id="g6382"
                 transform="scale(3.1578946,3.1578947)">
                <path
                   inkscape:connector-curvature="0"
                   d="m 322.78983,256.5 -0.96357,-2.32625 -2.32626,-0.96356 -2.32626,0.96356 -0.96357,2.32625 0.96357,2.32626 2.32626,0.96357 2.32626,-0.96357 0.96357,-2.32626 z"
                   style="fill:#ff0000;fill-opacity:1;fill-rule:nonzero;stroke:none"
                   id="path6384" />
              </g>
              <g
                 id="g6386"
                 transform="scale(3.1578946,3.1578947)">
                <path
                   inkscape:connector-curvature="0"
                   d="m 361.78983,217.5 -0.96357,-2.32625 -2.32626,-0.96356 -2.32626,0.96356 -0.96357,2.32625 0.96357,2.32625 2.32626,0.96356 2.32626,-0.96356 0.96357,-2.32625 z"
                   style="fill:#ff0000;fill-opacity:1;fill-rule:nonzero;stroke:none"
                   id="path6388" />
              </g>
              <g
                 id="g6390"
                 transform="scale(3.1578946,3.1578947)">
                <path
                   inkscape:connector-curvature="0"
                   d="m 400.78983,195.5 -0.96357,-2.32625 -2.32626,-0.96356 -2.32626,0.96356 -0.96357,2.32625 0.96357,2.32625 2.32626,0.96356 2.32626,-0.96356 0.96357,-2.32625 z"
                   style="fill:#ff0000;fill-opacity:1;fill-rule:nonzero;stroke:none"
                   id="path6392" />
              </g>
              <g
                 id="g6394"
                 transform="scale(3.1578946,3.1578947)">
                <path
                   inkscape:connector-curvature="0"
                   d="m 437.78983,189.5 -0.96357,-2.32625 -2.32626,-0.96356 -2.32626,0.96356 -0.96357,2.32625 0.96357,2.32625 2.32626,0.96356 2.32626,-0.96356 0.96357,-2.32625 z"
                   style="fill:#ff0000;fill-opacity:1;fill-rule:nonzero;stroke:none"
                   id="path6396" />
              </g>
              <g
                 id="g6398"
                 transform="scale(3.1578946,3.1578947)">
                <path
                   inkscape:connector-curvature="0"
                   d="m 474.78983,197.5 -0.96357,-2.32625 -2.32626,-0.96356 -2.32626,0.96356 -0.96357,2.32625 0.96357,2.32625 2.32626,0.96356 2.32626,-0.96356 0.96357,-2.32625 z"
                   style="fill:#ff0000;fill-opacity:1;fill-rule:nonzero;stroke:none"
                   id="path6400" />
              </g>
              <g
                 id="g6402"
                 transform="scale(3.1578946,3.1578947)">
                <path
                   inkscape:connector-curvature="0"
                   d="m 510.78983,221.5 -0.96357,-2.32625 -2.32626,-0.96356 -2.32626,0.96356 -0.96357,2.32625 0.96357,2.32625 2.32626,0.96356 2.32626,-0.96356 0.96357,-2.32625 z"
                   style="fill:#ff0000;fill-opacity:1;fill-rule:nonzero;stroke:none"
                   id="path6404" />
              </g>
              <g
                 id="g6406"
                 transform="scale(3.1578946,3.1578947)">
                <path
                   inkscape:connector-curvature="0"
                   d="m 546.78979,260.5 -0.96356,-2.32626 -2.32623,-0.96357 -2.32623,0.96357 -0.96356,2.32626 0.96356,2.32626 2.32623,0.96357 2.32623,-0.96357 0.96356,-2.32626 z"
                   style="fill:#ff0000;fill-opacity:1;fill-rule:nonzero;stroke:none"
                   id="path6408" />
              </g>
              <g
                 id="g6410"
                 transform="scale(3.1578946,3.1578947)">
                <path
                   inkscape:connector-curvature="0"
                   d="m 581.78979,313.5 -0.96356,-2.32626 -2.32623,-0.96357 -2.32623,0.96357 -0.96356,2.32626 0.96356,2.32626 2.32623,0.96357 2.32623,-0.96357 0.96356,-2.32626 z"
                   style="fill:#ff0000;fill-opacity:1;fill-rule:nonzero;stroke:none"
                   id="path6412" />
              </g>
              <g
                 id="g6414"
                 transform="scale(3.1578946,3.1578947)">
                <path
                   inkscape:connector-curvature="0"
                   d="m 586.78979,322.5 -0.96356,-2.32626 -2.32623,-0.96357 -2.32623,0.96357 -0.96356,2.32626 0.96356,2.32626 2.32623,0.96357 2.32623,-0.96357 0.96356,-2.32626 z"
                   style="fill:#ff0000;fill-opacity:1;fill-rule:nonzero;stroke:none"
                   id="path6416" />
              </g>
              <g
                 id="g6418"
                 transform="scale(3.1578946,3.1578947)">
                <path
                   inkscape:connector-curvature="0"
                   d="m 586.78979,322.5 -0.96356,-2.32626 -2.32623,-0.96357 -2.32623,0.96357 -0.96356,2.32626 0.96356,2.32626 2.32623,0.96357 2.32623,-0.96357 0.96356,-2.32626 z"
                   style="fill:#ff0000;fill-opacity:1;fill-rule:nonzero;stroke:none"
                   id="path6420" />
              </g>
              <g
                 id="g6422"
                 transform="scale(3.1578946,3.1578947)">
                <path
                   inkscape:connector-curvature="0"
                   d="m 585.78979,315.5 -0.96356,-2.32626 -2.32623,-0.96357 -2.32623,0.96357 -0.96356,2.32626 0.96356,2.32626 2.32623,0.96357 2.32623,-0.96357 0.96356,-2.32626 z"
                   style="fill:#ff0000;fill-opacity:1;fill-rule:nonzero;stroke:none"
                   id="path6424" />
              </g>
              <g
                 id="g6426"
                 transform="scale(3.1578946,3.1578947)">
                <path
                   inkscape:connector-curvature="0"
                   d="m 579.78979,279.5 -0.96356,-2.32626 -2.32623,-0.96357 -2.32623,0.96357 -0.96356,2.32626 0.96356,2.32626 2.32623,0.96357 2.32623,-0.96357 0.96356,-2.32626 z"
                   style="fill:#ff0000;fill-opacity:1;fill-rule:nonzero;stroke:none"
                   id="path6428" />
              </g>
              <g
                 id="g6430"
                 transform="scale(3.1578946,3.1578947)">
                <path
                   inkscape:connector-curvature="0"
                   d="m 569.78979,233.5 -0.96356,-2.32625 -2.32623,-0.96356 -2.32623,0.96356 -0.96356,2.32625 0.96356,2.32625 2.32623,0.96356 2.32623,-0.96356 0.96356,-2.32625 z"
                   style="fill:#ff0000;fill-opacity:1;fill-rule:nonzero;stroke:none"
                   id="path6432" />
              </g>
              <g
                 id="g6434"
                 transform="scale(3.1578946,3.1578947)">
                <path
                   inkscape:connector-curvature="0"
                   d="m 560.78979,203.5 -0.96356,-2.32625 -2.32623,-0.96356 -2.32623,0.96356 -0.96356,2.32625 0.96356,2.32625 2.32623,0.96356 2.32623,-0.96356 0.96356,-2.32625 z"
                   style="fill:#ff0000;fill-opacity:1;fill-rule:nonzero;stroke:none"
                   id="path6436" />
              </g>
              <g
                 id="g6438"
                 transform="scale(3.1578946,3.1578947)">
                <path
                   inkscape:connector-curvature="0"
                   d="m 550.78979,188.5 -0.96356,-2.32625 -2.32623,-0.96356 -2.32623,0.96356 -0.96356,2.32625 0.96356,2.32625 2.32623,0.96356 2.32623,-0.96356 0.96356,-2.32625 z"
                   style="fill:#ff0000;fill-opacity:1;fill-rule:nonzero;stroke:none"
                   id="path6440" />
              </g>
              <g
                 id="g6442"
                 transform="scale(3.1578946,3.1578947)">
                <path
                   inkscape:connector-curvature="0"
                   d="m 541.78979,189.5 -0.96356,-2.32625 -2.32623,-0.96356 -2.32623,0.96356 -0.96356,2.32625 0.96356,2.32625 2.32623,0.96356 2.32623,-0.96356 0.96356,-2.32625 z"
                   style="fill:#ff0000;fill-opacity:1;fill-rule:nonzero;stroke:none"
                   id="path6444" />
              </g>
              <g
                 id="g6446"
                 transform="scale(3.1578946,3.1578947)">
                <path
                   inkscape:connector-curvature="0"
                   d="m 532.78979,205.5 -0.96356,-2.32625 -2.32623,-0.96356 -2.32623,0.96356 -0.96356,2.32625 0.96356,2.32625 2.32623,0.96356 2.32623,-0.96356 0.96356,-2.32625 z"
                   style="fill:#ff0000;fill-opacity:1;fill-rule:nonzero;stroke:none"
                   id="path6448" />
              </g>
              <g
                 id="g6450"
                 transform="scale(3.1578946,3.1578947)">
                <path
                   inkscape:connector-curvature="0"
                   d="m 523.78979,237.5 -0.96356,-2.32625 -2.32623,-0.96356 -2.32623,0.96356 -0.96356,2.32625 0.96356,2.32625 2.32623,0.96356 2.32623,-0.96356 0.96356,-2.32625 z"
                   style="fill:#ff0000;fill-opacity:1;fill-rule:nonzero;stroke:none"
                   id="path6452" />
              </g>
              <g
                 id="g6454"
                 transform="scale(3.1578946,3.1578947)">
                <path
                   inkscape:connector-curvature="0"
                   d="m 514.78979,283.5 -0.96356,-2.32626 -2.32623,-0.96357 -2.32626,0.96357 -0.96357,2.32626 0.96357,2.32626 2.32626,0.96357 2.32623,-0.96357 0.96356,-2.32626 z"
                   style="fill:#ff0000;fill-opacity:1;fill-rule:nonzero;stroke:none"
                   id="path6456" />
              </g>
              <g
                 id="g6458"
                 transform="scale(3.1578946,3.1578947)">
                <path
                   inkscape:connector-curvature="0"
                   d="m 505.78983,343.5 -0.96357,-2.32626 -2.32626,-0.96357 -2.32626,0.96357 -0.96357,2.32626 0.96357,2.32626 2.32626,0.96357 2.32626,-0.96357 0.96357,-2.32626 z"
                   style="fill:#ff0000;fill-opacity:1;fill-rule:nonzero;stroke:none"
                   id="path6460" />
              </g>
              <g
                 id="g6462"
                 transform="scale(3.1578946,3.1578947)">
                <path
                   inkscape:connector-curvature="0"
                   d="m 498.78983,396.5 -0.96357,-2.32626 -2.32626,-0.96357 -2.32626,0.96357 -0.96357,2.32626 0.96357,2.32626 2.32626,0.96357 2.32626,-0.96357 0.96357,-2.32626 z"
                   style="fill:#ff0000;fill-opacity:1;fill-rule:nonzero;stroke:none"
                   id="path6464" />
              </g>
              <g
                 id="g6466"
                 transform="scale(3.1578946,3.1578947)">
                <path
                   inkscape:connector-curvature="0"
                   d="m 498.78983,396.5 -0.96357,-2.32626 -2.32626,-0.96357 -2.32626,0.96357 -0.96357,2.32626 0.96357,2.32626 2.32626,0.96357 2.32626,-0.96357 0.96357,-2.32626 z"
                   style="fill:#ff0000;fill-opacity:1;fill-rule:nonzero;stroke:none"
                   id="path6468" />
              </g>
              <g
                 id="g6470"
                 transform="scale(3.1578946,3.1578947)">
                <path
                   inkscape:connector-curvature="0"
                   d="m 495.78983,389.5 -0.96357,-2.32626 -2.32626,-0.96357 -2.32626,0.96357 -0.96357,2.32626 0.96357,2.32626 2.32626,0.96357 2.32626,-0.96357 0.96357,-2.32626 z"
                   style="fill:#ff0000;fill-opacity:1;fill-rule:nonzero;stroke:none"
                   id="path6472" />
              </g>
              <g
                 id="g6474"
                 transform="scale(3.1578946,3.1578947)">
                <path
                   inkscape:connector-curvature="0"
                   d="m 481.78983,353.5 -0.96357,-2.32626 -2.32626,-0.96357 -2.32626,0.96357 -0.96357,2.32626 0.96357,2.32626 2.32626,0.96357 2.32626,-0.96357 0.96357,-2.32626 z"
                   style="fill:#ff0000;fill-opacity:1;fill-rule:nonzero;stroke:none"
                   id="path6476" />
              </g>
              <g
                 id="g6478"
                 transform="scale(3.1578946,3.1578947)">
                <path
                   inkscape:connector-curvature="0"
                   d="m 458.78983,304.5 -0.96357,-2.32626 -2.32626,-0.96357 -2.32626,0.96357 -0.96357,2.32626 0.96357,2.32626 2.32626,0.96357 2.32626,-0.96357 0.96357,-2.32626 z"
                   style="fill:#ff0000;fill-opacity:1;fill-rule:nonzero;stroke:none"
                   id="path6480" />
              </g>
              <g
                 id="g6482"
                 transform="scale(3.1578946,3.1578947)">
                <path
                   inkscape:connector-curvature="0"
                   d="m 434.78983,271.5 -0.96357,-2.32626 -2.32626,-0.96357 -2.32626,0.96357 -0.96357,2.32626 0.96357,2.32626 2.32626,0.96357 2.32626,-0.96357 0.96357,-2.32626 z"
                   style="fill:#ff0000;fill-opacity:1;fill-rule:nonzero;stroke:none"
                   id="path6484" />
              </g>
              <g
                 id="g6486"
                 transform="scale(3.1578946,3.1578947)">
                <path
                   inkscape:connector-curvature="0"
                   d="m 411.78983,253.5 -0.96357,-2.32625 -2.32626,-0.96356 -2.32626,0.96356 -0.96357,2.32625 0.96357,2.32625 2.32626,0.96358 2.32626,-0.96358 0.96357,-2.32625 z"
                   style="fill:#ff0000;fill-opacity:1;fill-rule:nonzero;stroke:none"
                   id="path6488" />
              </g>
              <g
                 id="g6490"
                 transform="scale(3.1578946,3.1578947)">
                <path
                   inkscape:connector-curvature="0"
                   d="m 388.78983,252.5 -0.96357,-2.32625 -2.32626,-0.96356 -2.32626,0.96356 -0.96357,2.32625 0.96357,2.32625 2.32626,0.96356 2.32626,-0.96356 0.96357,-2.32625 z"
                   style="fill:#ff0000;fill-opacity:1;fill-rule:nonzero;stroke:none"
                   id="path6492" />
              </g>
              <g
                 id="g6494"
                 transform="scale(3.1578946,3.1578947)">
                <path
                   inkscape:connector-curvature="0"
                   d="m 365.78983,265.5 -0.96357,-2.32626 -2.32626,-0.96357 -2.32626,0.96357 -0.96357,2.32626 0.96357,2.32626 2.32626,0.96357 2.32626,-0.96357 0.96357,-2.32626 z"
                   style="fill:#ff0000;fill-opacity:1;fill-rule:nonzero;stroke:none"
                   id="path6496" />
              </g>
              <g
                 id="g6498"
                 transform="scale(3.1578946,3.1578947)">
                <path
                   inkscape:connector-curvature="0"
                   d="m 343.78983,294.5 -0.96357,-2.32626 -2.32626,-0.96357 -2.32626,0.96357 -0.96357,2.32626 0.96357,2.32626 2.32626,0.96357 2.32626,-0.96357 0.96357,-2.32626 z"
                   style="fill:#ff0000;fill-opacity:1;fill-rule:nonzero;stroke:none"
                   id="path6500" />
              </g>
              <g
                 id="g6502"
                 transform="scale(3.1578946,3.1578947)">
                <path
                   inkscape:connector-curvature="0"
                   d="m 342.78983,295.5 -0.96357,-2.32626 -2.32626,-0.96357 -2.32626,0.96357 -0.96357,2.32626 0.96357,2.32626 2.32626,0.96357 2.32626,-0.96357 0.96357,-2.32626 z"
                   style="fill:#ff0000;fill-opacity:1;fill-rule:nonzero;stroke:none"
                   id="path6504" />
              </g>
              <g
                 id="g6506"
                 transform="scale(3.1578946,3.1578947)">
                <path
                   inkscape:connector-curvature="0"
                   d="m 342.78983,295.5 -0.96357,-2.32626 -2.32626,-0.96357 -2.32626,0.96357 -0.96357,2.32626 0.96357,2.32626 2.32626,0.96357 2.32626,-0.96357 0.96357,-2.32626 z"
                   style="fill:#ff0000;fill-opacity:1;fill-rule:nonzero;stroke:none"
                   id="path6508" />
              </g>
              <g
                 id="g6510"
                 transform="scale(3.1578946,3.1578947)">
                <path
                   inkscape:connector-curvature="0"
                   d="m 340.78983,294.5 -0.96357,-2.32626 -2.32626,-0.96357 -2.32626,0.96357 -0.96357,2.32626 0.96357,2.32626 2.32626,0.96357 2.32626,-0.96357 0.96357,-2.32626 z"
                   style="fill:#ff0000;fill-opacity:1;fill-rule:nonzero;stroke:none"
                   id="path6512" />
              </g>
              <g
                 id="g6514"
                 transform="scale(3.1578946,3.1578947)">
                <path
                   inkscape:connector-curvature="0"
                   d="m 328.78983,289.5 -0.96357,-2.32626 -2.32626,-0.96357 -2.32626,0.96357 -0.96357,2.32626 0.96357,2.32626 2.32626,0.96357 2.32626,-0.96357 0.96357,-2.32626 z"
                   style="fill:#ff0000;fill-opacity:1;fill-rule:nonzero;stroke:none"
                   id="path6516" />
              </g>
              <g
                 id="g6518"
                 transform="scale(3.1578946,3.1578947)">
                <path
                   inkscape:connector-curvature="0"
                   d="m 292.78983,282.5 -0.96357,-2.32626 -2.32626,-0.96357 -2.32626,0.96357 -0.96357,2.32626 0.96357,2.32626 2.32626,0.96357 2.32626,-0.96357 0.96357,-2.32626 z"
                   style="fill:#ff0000;fill-opacity:1;fill-rule:nonzero;stroke:none"
                   id="path6520" />
              </g>
              <g
                 id="g6522"
                 transform="scale(3.1578946,3.1578947)">
                <path
                   inkscape:connector-curvature="0"
                   d="m 257.78983,291.5 -0.96357,-2.32626 -2.32626,-0.96357 -2.32625,0.96357 -0.96356,2.32626 0.96356,2.32626 2.32625,0.96357 2.32626,-0.96357 0.96357,-2.32626 z"
                   style="fill:#ff0000;fill-opacity:1;fill-rule:nonzero;stroke:none"
                   id="path6524" />
              </g>
              <g
                 id="g6526"
                 transform="scale(3.1578946,3.1578947)">
                <path
                   inkscape:connector-curvature="0"
                   d="m 248.78981,295.5 -0.96356,-2.32626 -2.32625,-0.96357 -2.32625,0.96357 -0.96356,2.32626 0.96356,2.32626 2.32625,0.96357 2.32625,-0.96357 0.96356,-2.32626 z"
                   style="fill:#ff0000;fill-opacity:1;fill-rule:nonzero;stroke:none"
                   id="path6528" />
              </g>
              <g
                 id="g6530"
                 transform="scale(3.1578946,3.1578947)">
                <path
                   inkscape:connector-curvature="0"
                   d="m 361,144 0,-95 209,0 0,95 -209,0 z"
                   style="fill:#ffffff;fill-opacity:1;fill-rule:nonzero;stroke:none"
                   id="path6532" />
              </g>
              <g
                 id="g6534">
                <g
                   id="g6536"
                   transform="matrix(3.1578946,0,0,3.1578947,1302.9548,197.69084)">
                  <text
                     transform="translate(0,6)"
                     id="text6538">
                    <tspan
                       style="font-size:18px;font-variant:normal;font-weight:normal;writing-mode:lr-tb;fill:#000000;fill-opacity:1;fill-rule:nonzero;stroke:none;font-family:Helvetica;-inkscape-font-specification:Helvetica"
                       x="0 10.008 20.016001 24.011999"
                       y="0"
                       sodipodi:role="line"
                       id="tspan6540">ball</tspan>
                  </text>
                </g>
              </g>
              <g
                 id="g6542"
                 transform="scale(3.1578946,3.1578947)">
                <path
                   inkscape:connector-curvature="0"
                   d="m 398.17593,62.5 -0.95822,-4.198227 -2.68487,-3.366714 -3.87973,-1.86839 -4.30622,0 -3.87973,1.86839 -2.68487,3.366714 -0.95822,4.198227 0.95822,4.198227 2.68487,3.366714 3.87973,1.868386 4.30622,0 3.87973,-1.868386 2.68487,-3.366714 L 398.17593,62.5 z"
                   style="fill:#0000ff;fill-opacity:1;fill-rule:nonzero;stroke:none"
                   id="path6544" />
              </g>
              <g
                 id="g6546">
                <g
                   id="g6548"
                   transform="matrix(3.1578946,0,0,3.1578947,1302.9548,269.05483)">
                  <text
                     transform="translate(0,6)"
                     id="text6550">
                    <tspan
                       style="font-size:18px;font-variant:normal;font-weight:normal;writing-mode:lr-tb;fill:#000000;fill-opacity:1;fill-rule:nonzero;stroke:none;font-family:Helvetica;-inkscape-font-specification:Helvetica"
                       x="0 5.0040002 10.998 21.006001 25.002001 35.009998 44.009998 49.014 59.021999 65.015999"
                       y="0"
                       sodipodi:role="line"
                       id="tspan6552">trajectory</tspan>
                  </text>
                </g>
              </g>
              <g
                 id="g6554"
                 transform="scale(3.1578946,3.1578947)">
                <path
                   inkscape:connector-curvature="0"
                   d="m 368.93881,85.200699 39.69412,0"
                   style="fill:none;stroke:#0000ff;stroke-width:2.63888907;stroke-linecap:butt;stroke-linejoin:bevel;stroke-miterlimit:1;stroke-opacity:1;stroke-dasharray:8, 8;stroke-dashoffset:0"
                   id="path6556" />
              </g>
              <g
                 id="g6558">
                <g
                   id="g6560"
                   transform="matrix(3.1578946,0,0,3.1578947,1302.9548,340.41884)">
                  <text
                     transform="translate(0,6)"
                     id="text6562">
                    <tspan
                       style="font-size:18px;font-variant:normal;font-weight:normal;writing-mode:lr-tb;fill:#000000;fill-opacity:1;fill-rule:nonzero;stroke:none;font-family:Helvetica;-inkscape-font-specification:Helvetica"
                       x="0 10.008 16.002001 26.01 36.018002 46.026001"
                       y="0"
                       sodipodi:role="line"
                       id="tspan6564">ground</tspan>
                  </text>
                </g>
              </g>
              <g
                 id="g6566"
                 transform="scale(3.1578946,3.1578947)">
                <path
                   inkscape:connector-curvature="0"
                   d="m 368.93881,107.7993 39.69412,0"
                   style="fill:none;stroke:#000000;stroke-width:3.95833302;stroke-linecap:butt;stroke-linejoin:round;stroke-miterlimit:10;stroke-opacity:1;stroke-dasharray:none"
                   id="path6568" />
              </g>
              <g
                 id="g6570">
                <g
                   id="g6572"
                   transform="matrix(3.1578946,0,0,3.1578947,1302.9548,411.78285)">
                  <text
                     transform="translate(0,6)"
                     id="text6574">
                    <tspan
                       style="font-size:18px;font-variant:normal;font-weight:normal;writing-mode:lr-tb;fill:#000000;fill-opacity:1;fill-rule:nonzero;stroke:none;font-family:Helvetica;-inkscape-font-specification:Helvetica"
                       x="0 10.008 20.016001 30.024 40.032001 50.040001 55.043999 65.052002 71.045998 75.042 85.050003 95.057999 105.066 109.062 119.07 124.074"
                       y="0"
                       sodipodi:role="line"
                       id="tspan6576">ode45 gridpoints</tspan>
                  </text>
                </g>
              </g>
              <g
                 id="g6578"
                 transform="scale(3.1578946,3.1578947)">
                <path
                   inkscape:connector-curvature="0"
                   d="m 391.78983,130.5 -0.96357,-2.32625 -2.32626,-0.96357 -2.32626,0.96357 -0.96357,2.32625 0.96357,2.32625 2.32626,0.96356 2.32626,-0.96356 0.96357,-2.32625 z"
                   style="fill:#ff0000;fill-opacity:1;fill-rule:nonzero;stroke:none"
                   id="path6580" />
              </g>
              <g
                 id="g6582"
                 transform="scale(3.1578946,3.1578947)">
                <path
                   inkscape:connector-curvature="0"
                   d="m 361,144 0,-95 209,0 0,95 -209,0 z"
                   style="fill:none;stroke:#262626;stroke-width:0.65972197;stroke-linecap:butt;stroke-linejoin:miter;stroke-miterlimit:10;stroke-opacity:1;stroke-dasharray:none"
                   id="path6584" />
              </g>
            </g>
          </g>
        </g>
      </g>
    </g>
  </g>
</svg>
